<mxfile host="Electron" agent="Mozilla/5.0 (Windows NT 10.0; Win64; x64) AppleWebKit/537.36 (KHTML, like Gecko) draw.io/24.7.17 Chrome/128.0.6613.36 Electron/32.0.1 Safari/537.36" version="24.7.17" pages="4">
  <diagram name="Page-1" id="e7e014a7-5840-1c2e-5031-d8a46d1fe8dd">
    <mxGraphModel dx="2046" dy="1891" grid="1" gridSize="10" guides="1" tooltips="1" connect="1" arrows="1" fold="1" page="1" pageScale="1" pageWidth="827" pageHeight="1169" background="none" math="0" shadow="0">
      <root>
        <mxCell id="0" />
        <mxCell id="1" parent="0" />
        <mxCell id="2" value="index.html" style="swimlane;whiteSpace=wrap" parent="1" vertex="1">
          <mxGeometry x="160" y="20" width="180" height="253" as="geometry">
            <mxRectangle x="20" y="-130" width="100" height="30" as="alternateBounds" />
          </mxGeometry>
        </mxCell>
        <mxCell id="0R6DYLABNqhv8RKaFwrT-42" value="&amp;lt;&amp;lt;Form&amp;gt;&amp;gt;&lt;br&gt;Login&lt;br&gt;[field: username]&lt;div&gt;[field: password]&lt;/div&gt;" style="rounded=1;whiteSpace=wrap;html=1;fillColor=#bac8d3;strokeColor=#23445d;" parent="2" vertex="1">
          <mxGeometry x="30" y="147" width="120" height="80" as="geometry" />
        </mxCell>
        <mxCell id="0R6DYLABNqhv8RKaFwrT-44" value="" style="ellipse;whiteSpace=wrap;html=1;aspect=fixed;" parent="2" vertex="1">
          <mxGeometry x="80" y="220" width="20" height="20" as="geometry" />
        </mxCell>
        <mxCell id="0R6DYLABNqhv8RKaFwrT-43" value="&amp;lt;&amp;lt;Form&amp;gt;&amp;gt;&lt;br&gt;Register&lt;div&gt;[field: username]&lt;/div&gt;&lt;div&gt;[field: password]&lt;br&gt;&lt;/div&gt;&lt;div&gt;[field: email]&lt;br&gt;&lt;/div&gt;" style="rounded=1;whiteSpace=wrap;html=1;fillColor=#bac8d3;strokeColor=#23445d;" parent="2" vertex="1">
          <mxGeometry x="30" y="40" width="120" height="87" as="geometry" />
        </mxCell>
        <mxCell id="XVzJHZ976RR3-nmce3_F-19" value="" style="ellipse;whiteSpace=wrap;html=1;aspect=fixed;" parent="2" vertex="1">
          <mxGeometry x="140" y="73.5" width="20" height="20" as="geometry" />
        </mxCell>
        <mxCell id="0R6DYLABNqhv8RKaFwrT-45" value="" style="ellipse;whiteSpace=wrap;html=1;aspect=fixed;" parent="1" vertex="1">
          <mxGeometry x="230" y="-290" width="20" height="20" as="geometry" />
        </mxCell>
        <mxCell id="0R6DYLABNqhv8RKaFwrT-46" value="Index page" style="swimlane;whiteSpace=wrap" parent="1" vertex="1">
          <mxGeometry x="260" y="-360" width="250" height="210" as="geometry" />
        </mxCell>
        <mxCell id="0R6DYLABNqhv8RKaFwrT-47" value="&amp;lt;&amp;lt;Form&amp;gt;&amp;gt;&lt;br&gt;Login" style="rounded=1;whiteSpace=wrap;html=1;fillColor=#bac8d3;strokeColor=#23445d;" parent="0R6DYLABNqhv8RKaFwrT-46" vertex="1">
          <mxGeometry x="65" y="130" width="120" height="60" as="geometry" />
        </mxCell>
        <mxCell id="0R6DYLABNqhv8RKaFwrT-48" value="&amp;lt;&amp;lt;Form&amp;gt;&amp;gt;&lt;br&gt;Register" style="rounded=1;whiteSpace=wrap;html=1;fillColor=#bac8d3;strokeColor=#23445d;" parent="0R6DYLABNqhv8RKaFwrT-46" vertex="1">
          <mxGeometry x="65" y="40" width="120" height="60" as="geometry" />
        </mxCell>
        <mxCell id="0R6DYLABNqhv8RKaFwrT-49" value="" style="ellipse;whiteSpace=wrap;html=1;aspect=fixed;" parent="0R6DYLABNqhv8RKaFwrT-46" vertex="1">
          <mxGeometry x="115" y="180" width="20" height="20" as="geometry" />
        </mxCell>
        <mxCell id="0R6DYLABNqhv8RKaFwrT-55" value="Register" style="shape=parallelogram;perimeter=parallelogramPerimeter;whiteSpace=wrap;html=1;fixedSize=1;" parent="1" vertex="1">
          <mxGeometry x="390" y="83" width="140" height="40" as="geometry" />
        </mxCell>
        <mxCell id="AZieTVKFx6yNV__6ZjwJ-2" value="" style="endArrow=classic;html=1;rounded=0;exitX=0.5;exitY=1;exitDx=0;exitDy=0;entryX=0.5;entryY=0;entryDx=0;entryDy=0;" parent="1" source="AZieTVKFx6yNV__6ZjwJ-5" target="XVzJHZ976RR3-nmce3_F-108" edge="1">
          <mxGeometry width="50" height="50" relative="1" as="geometry">
            <mxPoint x="500" y="123" as="sourcePoint" />
            <mxPoint x="340" y="170" as="targetPoint" />
            <Array as="points">
              <mxPoint x="470" y="170" />
            </Array>
          </mxGeometry>
        </mxCell>
        <mxCell id="XVzJHZ976RR3-nmce3_F-64" value="credentials&lt;div&gt;not valid&lt;/div&gt;" style="edgeLabel;html=1;align=center;verticalAlign=middle;resizable=0;points=[];" parent="AZieTVKFx6yNV__6ZjwJ-2" vertex="1" connectable="0">
          <mxGeometry x="0.3326" y="-2" relative="1" as="geometry">
            <mxPoint x="-28" y="-31" as="offset" />
          </mxGeometry>
        </mxCell>
        <mxCell id="AZieTVKFx6yNV__6ZjwJ-6" value="" style="ellipse;whiteSpace=wrap;html=1;aspect=fixed;" parent="1" vertex="1">
          <mxGeometry x="510" y="93" width="20" height="20" as="geometry" />
        </mxCell>
        <mxCell id="AZieTVKFx6yNV__6ZjwJ-7" value="" style="endArrow=classic;html=1;rounded=0;exitX=1;exitY=0.5;exitDx=0;exitDy=0;entryX=1;entryY=0.5;entryDx=0;entryDy=0;" parent="1" source="AZieTVKFx6yNV__6ZjwJ-6" target="XVzJHZ976RR3-nmce3_F-108" edge="1">
          <mxGeometry width="50" height="50" relative="1" as="geometry">
            <mxPoint x="540" y="183" as="sourcePoint" />
            <mxPoint x="340" y="210" as="targetPoint" />
            <Array as="points">
              <mxPoint x="560" y="103" />
              <mxPoint x="560" y="220" />
            </Array>
          </mxGeometry>
        </mxCell>
        <mxCell id="AZieTVKFx6yNV__6ZjwJ-8" value="registration complete" style="edgeLabel;html=1;align=center;verticalAlign=middle;resizable=0;points=[];" parent="AZieTVKFx6yNV__6ZjwJ-7" vertex="1" connectable="0">
          <mxGeometry x="0.3878" y="1" relative="1" as="geometry">
            <mxPoint x="29" y="-102" as="offset" />
          </mxGeometry>
        </mxCell>
        <mxCell id="AZieTVKFx6yNV__6ZjwJ-10" value="Register" style="shape=parallelogram;perimeter=parallelogramPerimeter;whiteSpace=wrap;html=1;fixedSize=1;" parent="1" vertex="1">
          <mxGeometry x="520" y="-275" width="140" height="40" as="geometry" />
        </mxCell>
        <mxCell id="AZieTVKFx6yNV__6ZjwJ-11" value="Login" style="shape=parallelogram;perimeter=parallelogramPerimeter;whiteSpace=wrap;html=1;fixedSize=1;" parent="1" vertex="1">
          <mxGeometry x="180" y="373" width="140" height="40" as="geometry" />
        </mxCell>
        <mxCell id="XVzJHZ976RR3-nmce3_F-42" style="edgeStyle=orthogonalEdgeStyle;rounded=0;orthogonalLoop=1;jettySize=auto;html=1;entryX=0;entryY=0.5;entryDx=0;entryDy=0;" parent="1" source="AZieTVKFx6yNV__6ZjwJ-13" target="AZieTVKFx6yNV__6ZjwJ-19" edge="1">
          <mxGeometry relative="1" as="geometry" />
        </mxCell>
        <mxCell id="XVzJHZ976RR3-nmce3_F-43" value="userId -&amp;gt; session" style="edgeLabel;html=1;align=center;verticalAlign=middle;resizable=0;points=[];" parent="XVzJHZ976RR3-nmce3_F-42" vertex="1" connectable="0">
          <mxGeometry x="-0.8062" relative="1" as="geometry">
            <mxPoint x="39" y="-10" as="offset" />
          </mxGeometry>
        </mxCell>
        <mxCell id="AZieTVKFx6yNV__6ZjwJ-13" value="" style="ellipse;whiteSpace=wrap;html=1;aspect=fixed;" parent="1" vertex="1">
          <mxGeometry x="300" y="383" width="20" height="20" as="geometry" />
        </mxCell>
        <mxCell id="XVzJHZ976RR3-nmce3_F-18" style="edgeStyle=orthogonalEdgeStyle;rounded=0;orthogonalLoop=1;jettySize=auto;html=1;entryX=0.5;entryY=1;entryDx=0;entryDy=0;" parent="1" source="AZieTVKFx6yNV__6ZjwJ-14" target="XVzJHZ976RR3-nmce3_F-111" edge="1">
          <mxGeometry relative="1" as="geometry">
            <mxPoint x="150" y="320" as="targetPoint" />
          </mxGeometry>
        </mxCell>
        <mxCell id="XVzJHZ976RR3-nmce3_F-40" value="invalid credentials" style="edgeLabel;html=1;align=center;verticalAlign=middle;resizable=0;points=[];" parent="XVzJHZ976RR3-nmce3_F-18" vertex="1" connectable="0">
          <mxGeometry x="-0.7565" y="3" relative="1" as="geometry">
            <mxPoint x="-30" y="-13" as="offset" />
          </mxGeometry>
        </mxCell>
        <mxCell id="AZieTVKFx6yNV__6ZjwJ-14" value="" style="ellipse;whiteSpace=wrap;html=1;aspect=fixed;" parent="1" vertex="1">
          <mxGeometry x="180" y="383" width="20" height="20" as="geometry" />
        </mxCell>
        <mxCell id="XVzJHZ976RR3-nmce3_F-44" style="edgeStyle=orthogonalEdgeStyle;rounded=0;orthogonalLoop=1;jettySize=auto;html=1;" parent="1" source="AZieTVKFx6yNV__6ZjwJ-19" edge="1">
          <mxGeometry relative="1" as="geometry">
            <mxPoint x="579.9999999999999" y="393" as="targetPoint" />
          </mxGeometry>
        </mxCell>
        <mxCell id="AZieTVKFx6yNV__6ZjwJ-19" value="ShowHome" style="shape=parallelogram;perimeter=parallelogramPerimeter;whiteSpace=wrap;html=1;fixedSize=1;" parent="1" vertex="1">
          <mxGeometry x="420" y="373" width="140" height="40" as="geometry" />
        </mxCell>
        <mxCell id="AZieTVKFx6yNV__6ZjwJ-21" value="Home.html" style="swimlane;whiteSpace=wrap" parent="1" vertex="1">
          <mxGeometry x="580" y="268" width="220" height="272" as="geometry" />
        </mxCell>
        <mxCell id="AZieTVKFx6yNV__6ZjwJ-29" value="&lt;div&gt;&amp;lt;&amp;lt;Anchor&amp;gt;&amp;gt;&lt;/div&gt;Folders tree" style="rounded=1;whiteSpace=wrap;html=1;fillColor=#bac8d3;strokeColor=#23445d;" parent="AZieTVKFx6yNV__6ZjwJ-21" vertex="1">
          <mxGeometry x="60" y="40" width="120" height="60" as="geometry" />
        </mxCell>
        <mxCell id="AZieTVKFx6yNV__6ZjwJ-30" value="&lt;div&gt;&amp;lt;&amp;lt;Button&amp;gt;&amp;gt;&lt;/div&gt;Document Manager" style="rounded=1;whiteSpace=wrap;html=1;fillColor=#bac8d3;strokeColor=#23445d;" parent="AZieTVKFx6yNV__6ZjwJ-21" vertex="1">
          <mxGeometry x="50" y="113" width="140" height="65" as="geometry" />
        </mxCell>
        <mxCell id="AZieTVKFx6yNV__6ZjwJ-31" value="&lt;div&gt;&amp;lt;&amp;lt;Button&amp;gt;&amp;gt;&lt;/div&gt;Folder Manager" style="rounded=1;whiteSpace=wrap;html=1;fillColor=#bac8d3;strokeColor=#23445d;" parent="AZieTVKFx6yNV__6ZjwJ-21" vertex="1">
          <mxGeometry x="60" y="190" width="120" height="60" as="geometry" />
        </mxCell>
        <mxCell id="AZieTVKFx6yNV__6ZjwJ-34" value="" style="ellipse;whiteSpace=wrap;html=1;aspect=fixed;" parent="AZieTVKFx6yNV__6ZjwJ-21" vertex="1">
          <mxGeometry x="170" y="60" width="20" height="20" as="geometry" />
        </mxCell>
        <mxCell id="AZieTVKFx6yNV__6ZjwJ-35" value="" style="ellipse;whiteSpace=wrap;html=1;aspect=fixed;" parent="AZieTVKFx6yNV__6ZjwJ-21" vertex="1">
          <mxGeometry x="40" y="145" width="20" height="20" as="geometry" />
        </mxCell>
        <mxCell id="AZieTVKFx6yNV__6ZjwJ-36" value="" style="ellipse;whiteSpace=wrap;html=1;aspect=fixed;" parent="AZieTVKFx6yNV__6ZjwJ-21" vertex="1">
          <mxGeometry x="110" y="242" width="20" height="20" as="geometry" />
        </mxCell>
        <mxCell id="AZieTVKFx6yNV__6ZjwJ-37" value="" style="endArrow=classic;html=1;rounded=0;entryX=0.077;entryY=0.434;entryDx=0;entryDy=0;entryPerimeter=0;" parent="AZieTVKFx6yNV__6ZjwJ-21" target="AZieTVKFx6yNV__6ZjwJ-40" edge="1">
          <mxGeometry width="50" height="50" relative="1" as="geometry">
            <mxPoint x="190" y="72" as="sourcePoint" />
            <mxPoint x="350" y="72" as="targetPoint" />
          </mxGeometry>
        </mxCell>
        <mxCell id="AZieTVKFx6yNV__6ZjwJ-38" value="click" style="text;html=1;align=center;verticalAlign=middle;resizable=0;points=[];autosize=1;strokeColor=none;fillColor=none;" parent="AZieTVKFx6yNV__6ZjwJ-21" vertex="1">
          <mxGeometry x="180" y="50" width="50" height="30" as="geometry" />
        </mxCell>
        <mxCell id="XVzJHZ976RR3-nmce3_F-2" value="" style="ellipse;whiteSpace=wrap;html=1;aspect=fixed;" parent="AZieTVKFx6yNV__6ZjwJ-21" vertex="1">
          <mxGeometry x="-10" y="50" width="20" height="20" as="geometry" />
        </mxCell>
        <mxCell id="XVzJHZ976RR3-nmce3_F-137" value="click" style="edgeLabel;html=1;align=center;verticalAlign=middle;resizable=0;points=[];" parent="AZieTVKFx6yNV__6ZjwJ-21" vertex="1" connectable="0">
          <mxGeometry x="19.99543212364074" y="164.99505360015496" as="geometry">
            <mxPoint x="71" y="95" as="offset" />
          </mxGeometry>
        </mxCell>
        <mxCell id="XVzJHZ976RR3-nmce3_F-6" style="edgeStyle=orthogonalEdgeStyle;rounded=0;orthogonalLoop=1;jettySize=auto;html=1;" parent="1" edge="1">
          <mxGeometry relative="1" as="geometry">
            <mxPoint x="980" y="260" as="targetPoint" />
            <mxPoint x="830" y="340" as="sourcePoint" />
          </mxGeometry>
        </mxCell>
        <mxCell id="AZieTVKFx6yNV__6ZjwJ-40" value="ShowFolderContent" style="shape=parallelogram;perimeter=parallelogramPerimeter;whiteSpace=wrap;html=1;fixedSize=1;" parent="1" vertex="1">
          <mxGeometry x="810" y="323" width="140" height="40" as="geometry" />
        </mxCell>
        <mxCell id="AZieTVKFx6yNV__6ZjwJ-42" value="" style="endArrow=classic;html=1;rounded=0;exitX=0.5;exitY=1;exitDx=0;exitDy=0;" parent="1" source="AZieTVKFx6yNV__6ZjwJ-36" edge="1">
          <mxGeometry width="50" height="50" relative="1" as="geometry">
            <mxPoint x="630" y="670" as="sourcePoint" />
            <mxPoint x="700" y="650" as="targetPoint" />
          </mxGeometry>
        </mxCell>
        <mxCell id="AZieTVKFx6yNV__6ZjwJ-43" value="DocumentManager.html" style="swimlane;whiteSpace=wrap" parent="1" vertex="1">
          <mxGeometry x="120" y="450" width="180" height="160" as="geometry" />
        </mxCell>
        <mxCell id="XVzJHZ976RR3-nmce3_F-90" value="&lt;div&gt;&amp;lt;&amp;lt;Form&amp;gt;&amp;gt;&lt;/div&gt;Document Creation&lt;div&gt;[field: name]&lt;br&gt;[field: path location]&lt;br&gt;[field: summary]&lt;br&gt;&lt;/div&gt;" style="rounded=1;whiteSpace=wrap;html=1;fillColor=#bac8d3;strokeColor=#23445d;" parent="AZieTVKFx6yNV__6ZjwJ-43" vertex="1">
          <mxGeometry x="30" y="35" width="120" height="95" as="geometry" />
        </mxCell>
        <mxCell id="XVzJHZ976RR3-nmce3_F-94" value="" style="ellipse;whiteSpace=wrap;html=1;aspect=fixed;" parent="AZieTVKFx6yNV__6ZjwJ-43" vertex="1">
          <mxGeometry x="80" y="120" width="20" height="20" as="geometry" />
        </mxCell>
        <mxCell id="tXXKckapeqjJFmlOg_h2-2" value="" style="ellipse;whiteSpace=wrap;html=1;aspect=fixed;" parent="AZieTVKFx6yNV__6ZjwJ-43" vertex="1">
          <mxGeometry x="-10" y="72.5" width="20" height="20" as="geometry" />
        </mxCell>
        <mxCell id="0R6DYLABNqhv8RKaFwrT-53" value="" style="endArrow=classic;html=1;rounded=0;entryX=0;entryY=0.5;entryDx=0;entryDy=0;" parent="1" target="0R6DYLABNqhv8RKaFwrT-55" edge="1">
          <mxGeometry width="50" height="50" relative="1" as="geometry">
            <mxPoint x="320" y="103" as="sourcePoint" />
            <mxPoint x="440" y="103" as="targetPoint" />
          </mxGeometry>
        </mxCell>
        <mxCell id="XVzJHZ976RR3-nmce3_F-7" value="FolderContent.html" style="swimlane;whiteSpace=wrap" parent="1" vertex="1">
          <mxGeometry x="830" y="20" width="220" height="240" as="geometry" />
        </mxCell>
        <mxCell id="XVzJHZ976RR3-nmce3_F-8" value="&lt;div&gt;&amp;lt;&amp;lt;Anchor&amp;gt;&amp;gt;&lt;br&gt;Subfolders&lt;br&gt;Parent folder&lt;/div&gt;" style="rounded=1;whiteSpace=wrap;html=1;fillColor=#bac8d3;strokeColor=#23445d;" parent="XVzJHZ976RR3-nmce3_F-7" vertex="1">
          <mxGeometry x="50" y="30" width="120" height="60" as="geometry" />
        </mxCell>
        <mxCell id="XVzJHZ976RR3-nmce3_F-9" value="" style="ellipse;whiteSpace=wrap;html=1;aspect=fixed;" parent="XVzJHZ976RR3-nmce3_F-7" vertex="1">
          <mxGeometry x="40" y="50" width="20" height="20" as="geometry" />
        </mxCell>
        <mxCell id="XVzJHZ976RR3-nmce3_F-12" value="Documents list" style="rounded=1;whiteSpace=wrap;html=1;fillColor=#bac8d3;strokeColor=#23445d;" parent="XVzJHZ976RR3-nmce3_F-7" vertex="1">
          <mxGeometry x="50" y="100" width="120" height="30" as="geometry" />
        </mxCell>
        <mxCell id="XVzJHZ976RR3-nmce3_F-50" value="&amp;lt;&amp;lt;Anchor&amp;gt;&amp;gt;&lt;br&gt;Access (document)" style="rounded=1;whiteSpace=wrap;html=1;fillColor=#bac8d3;strokeColor=#23445d;" parent="XVzJHZ976RR3-nmce3_F-7" vertex="1">
          <mxGeometry x="50" y="140" width="120" height="40" as="geometry" />
        </mxCell>
        <mxCell id="XVzJHZ976RR3-nmce3_F-51" value="&amp;lt;&amp;lt;Anchor&amp;gt;&amp;gt;&lt;br&gt;Move (document)" style="rounded=1;whiteSpace=wrap;html=1;fillColor=#bac8d3;strokeColor=#23445d;" parent="XVzJHZ976RR3-nmce3_F-7" vertex="1">
          <mxGeometry x="50" y="190" width="120" height="40" as="geometry" />
        </mxCell>
        <mxCell id="XVzJHZ976RR3-nmce3_F-54" value="" style="ellipse;whiteSpace=wrap;html=1;aspect=fixed;" parent="XVzJHZ976RR3-nmce3_F-7" vertex="1">
          <mxGeometry x="160" y="200" width="20" height="20" as="geometry" />
        </mxCell>
        <mxCell id="XVzJHZ976RR3-nmce3_F-55" value="" style="ellipse;whiteSpace=wrap;html=1;aspect=fixed;" parent="XVzJHZ976RR3-nmce3_F-7" vertex="1">
          <mxGeometry x="160" y="150" width="20" height="20" as="geometry" />
        </mxCell>
        <mxCell id="XVzJHZ976RR3-nmce3_F-57" value="" style="ellipse;whiteSpace=wrap;html=1;aspect=fixed;" parent="XVzJHZ976RR3-nmce3_F-7" vertex="1">
          <mxGeometry x="-10" y="110" width="20" height="20" as="geometry" />
        </mxCell>
        <mxCell id="XVzJHZ976RR3-nmce3_F-121" value="click" style="edgeLabel;html=1;align=center;verticalAlign=middle;resizable=0;points=[];" parent="XVzJHZ976RR3-nmce3_F-7" vertex="1" connectable="0">
          <mxGeometry x="200.00380952380942" y="200" as="geometry" />
        </mxCell>
        <mxCell id="XVzJHZ976RR3-nmce3_F-11" style="edgeStyle=orthogonalEdgeStyle;rounded=0;orthogonalLoop=1;jettySize=auto;html=1;entryX=0.291;entryY=0.006;entryDx=0;entryDy=0;entryPerimeter=0;exitX=0;exitY=0.5;exitDx=0;exitDy=0;" parent="1" source="XVzJHZ976RR3-nmce3_F-9" target="AZieTVKFx6yNV__6ZjwJ-40" edge="1">
          <mxGeometry relative="1" as="geometry">
            <mxPoint x="950" y="310" as="targetPoint" />
          </mxGeometry>
        </mxCell>
        <mxCell id="XVzJHZ976RR3-nmce3_F-14" value="click" style="edgeLabel;html=1;align=center;verticalAlign=middle;resizable=0;points=[];" parent="XVzJHZ976RR3-nmce3_F-11" vertex="1" connectable="0">
          <mxGeometry x="-0.7949" y="3" relative="1" as="geometry">
            <mxPoint y="-17" as="offset" />
          </mxGeometry>
        </mxCell>
        <mxCell id="XVzJHZ976RR3-nmce3_F-4" style="edgeStyle=orthogonalEdgeStyle;rounded=0;orthogonalLoop=1;jettySize=auto;html=1;" parent="1" source="XVzJHZ976RR3-nmce3_F-2" edge="1">
          <mxGeometry relative="1" as="geometry">
            <mxPoint x="450" y="328" as="targetPoint" />
          </mxGeometry>
        </mxCell>
        <mxCell id="XVzJHZ976RR3-nmce3_F-5" value="logout" style="edgeLabel;html=1;align=center;verticalAlign=middle;resizable=0;points=[];" parent="XVzJHZ976RR3-nmce3_F-4" vertex="1" connectable="0">
          <mxGeometry x="-0.7849" y="3" relative="1" as="geometry">
            <mxPoint x="-7" y="-13" as="offset" />
          </mxGeometry>
        </mxCell>
        <mxCell id="0R6DYLABNqhv8RKaFwrT-51" value="submit" style="text;html=1;align=center;verticalAlign=middle;whiteSpace=wrap;rounded=0;" parent="1" vertex="1">
          <mxGeometry x="310" y="100" width="60" height="30" as="geometry" />
        </mxCell>
        <mxCell id="XVzJHZ976RR3-nmce3_F-45" style="edgeStyle=orthogonalEdgeStyle;rounded=0;orthogonalLoop=1;jettySize=auto;html=1;entryX=1;entryY=0.5;entryDx=0;entryDy=0;exitX=0;exitY=0.5;exitDx=0;exitDy=0;" parent="1" source="AZieTVKFx6yNV__6ZjwJ-35" target="XVzJHZ976RR3-nmce3_F-88" edge="1">
          <mxGeometry relative="1" as="geometry">
            <mxPoint x="530" y="480" as="targetPoint" />
            <Array as="points">
              <mxPoint x="540" y="423" />
              <mxPoint x="540" y="520" />
            </Array>
          </mxGeometry>
        </mxCell>
        <mxCell id="XVzJHZ976RR3-nmce3_F-47" value="click" style="edgeLabel;html=1;align=center;verticalAlign=middle;resizable=0;points=[];" parent="XVzJHZ976RR3-nmce3_F-45" vertex="1" connectable="0">
          <mxGeometry x="-0.8936" y="-1" relative="1" as="geometry">
            <mxPoint x="-8" y="-9" as="offset" />
          </mxGeometry>
        </mxCell>
        <mxCell id="XVzJHZ976RR3-nmce3_F-49" value="AvailableFolders.html" style="swimlane;whiteSpace=wrap" parent="1" vertex="1">
          <mxGeometry x="870" y="373" width="170" height="117" as="geometry" />
        </mxCell>
        <mxCell id="XVzJHZ976RR3-nmce3_F-65" value="&amp;lt;&amp;lt;Anchor&amp;gt;&amp;gt;&lt;br&gt;Folders destination" style="rounded=1;whiteSpace=wrap;html=1;fillColor=#bac8d3;strokeColor=#23445d;" parent="XVzJHZ976RR3-nmce3_F-49" vertex="1">
          <mxGeometry x="25" y="40" width="115" height="60" as="geometry" />
        </mxCell>
        <mxCell id="XVzJHZ976RR3-nmce3_F-70" value="" style="ellipse;whiteSpace=wrap;html=1;aspect=fixed;" parent="XVzJHZ976RR3-nmce3_F-49" vertex="1">
          <mxGeometry x="75" y="87" width="20" height="20" as="geometry" />
        </mxCell>
        <mxCell id="XVzJHZ976RR3-nmce3_F-58" style="edgeStyle=orthogonalEdgeStyle;rounded=0;orthogonalLoop=1;jettySize=auto;html=1;entryX=0.5;entryY=0;entryDx=0;entryDy=0;" parent="1" source="XVzJHZ976RR3-nmce3_F-57" target="AZieTVKFx6yNV__6ZjwJ-21" edge="1">
          <mxGeometry relative="1" as="geometry" />
        </mxCell>
        <mxCell id="XVzJHZ976RR3-nmce3_F-59" value="back" style="edgeLabel;html=1;align=center;verticalAlign=middle;resizable=0;points=[];" parent="XVzJHZ976RR3-nmce3_F-58" vertex="1" connectable="0">
          <mxGeometry x="-0.7509" y="-1" relative="1" as="geometry">
            <mxPoint x="12" y="-9" as="offset" />
          </mxGeometry>
        </mxCell>
        <mxCell id="XVzJHZ976RR3-nmce3_F-60" style="edgeStyle=orthogonalEdgeStyle;rounded=0;orthogonalLoop=1;jettySize=auto;html=1;entryX=0.5;entryY=0;entryDx=0;entryDy=0;" parent="1" source="0R6DYLABNqhv8RKaFwrT-44" target="AZieTVKFx6yNV__6ZjwJ-11" edge="1">
          <mxGeometry relative="1" as="geometry" />
        </mxCell>
        <mxCell id="XVzJHZ976RR3-nmce3_F-61" value="submit" style="edgeLabel;html=1;align=center;verticalAlign=middle;resizable=0;points=[];" parent="XVzJHZ976RR3-nmce3_F-60" vertex="1" connectable="0">
          <mxGeometry x="-0.7982" y="1" relative="1" as="geometry">
            <mxPoint x="29" y="-11" as="offset" />
          </mxGeometry>
        </mxCell>
        <mxCell id="AZieTVKFx6yNV__6ZjwJ-5" value="" style="ellipse;whiteSpace=wrap;html=1;aspect=fixed;" parent="1" vertex="1">
          <mxGeometry x="460" y="113" width="20" height="20" as="geometry" />
        </mxCell>
        <mxCell id="XVzJHZ976RR3-nmce3_F-72" style="edgeStyle=orthogonalEdgeStyle;rounded=0;orthogonalLoop=1;jettySize=auto;html=1;entryX=1;entryY=0.75;entryDx=0;entryDy=0;" parent="1" source="XVzJHZ976RR3-nmce3_F-69" target="XVzJHZ976RR3-nmce3_F-7" edge="1">
          <mxGeometry relative="1" as="geometry">
            <Array as="points">
              <mxPoint x="1230" y="540" />
              <mxPoint x="1230" y="200" />
            </Array>
          </mxGeometry>
        </mxCell>
        <mxCell id="XVzJHZ976RR3-nmce3_F-69" value="MoveDocument" style="shape=parallelogram;perimeter=parallelogramPerimeter;whiteSpace=wrap;html=1;fixedSize=1;" parent="1" vertex="1">
          <mxGeometry x="880" y="520" width="140" height="40" as="geometry" />
        </mxCell>
        <mxCell id="XVzJHZ976RR3-nmce3_F-71" style="edgeStyle=orthogonalEdgeStyle;rounded=0;orthogonalLoop=1;jettySize=auto;html=1;entryX=0.538;entryY=-0.022;entryDx=0;entryDy=0;entryPerimeter=0;" parent="1" source="XVzJHZ976RR3-nmce3_F-70" target="XVzJHZ976RR3-nmce3_F-69" edge="1">
          <mxGeometry relative="1" as="geometry" />
        </mxCell>
        <mxCell id="XVzJHZ976RR3-nmce3_F-76" value="click" style="edgeLabel;html=1;align=center;verticalAlign=middle;resizable=0;points=[];" parent="XVzJHZ976RR3-nmce3_F-71" vertex="1" connectable="0">
          <mxGeometry x="-0.3914" relative="1" as="geometry">
            <mxPoint x="-15" as="offset" />
          </mxGeometry>
        </mxCell>
        <mxCell id="XVzJHZ976RR3-nmce3_F-74" style="edgeStyle=orthogonalEdgeStyle;rounded=0;orthogonalLoop=1;jettySize=auto;html=1;entryX=0.75;entryY=1;entryDx=0;entryDy=0;" parent="1" source="XVzJHZ976RR3-nmce3_F-73" target="XVzJHZ976RR3-nmce3_F-7" edge="1">
          <mxGeometry relative="1" as="geometry">
            <Array as="points">
              <mxPoint x="1060" y="423" />
              <mxPoint x="1060" y="336" />
              <mxPoint x="995" y="336" />
            </Array>
          </mxGeometry>
        </mxCell>
        <mxCell id="XVzJHZ976RR3-nmce3_F-75" value="back" style="edgeLabel;html=1;align=center;verticalAlign=middle;resizable=0;points=[];" parent="XVzJHZ976RR3-nmce3_F-74" vertex="1" connectable="0">
          <mxGeometry x="-0.7281" relative="1" as="geometry">
            <mxPoint x="-20" y="3" as="offset" />
          </mxGeometry>
        </mxCell>
        <mxCell id="XVzJHZ976RR3-nmce3_F-73" value="" style="ellipse;whiteSpace=wrap;html=1;aspect=fixed;" parent="1" vertex="1">
          <mxGeometry x="1030" y="413" width="20" height="20" as="geometry" />
        </mxCell>
        <mxCell id="XVzJHZ976RR3-nmce3_F-79" value="DocumentDetails.html" style="swimlane;whiteSpace=wrap" parent="1" vertex="1">
          <mxGeometry x="1300" y="43" width="170" height="120" as="geometry" />
        </mxCell>
        <mxCell id="XVzJHZ976RR3-nmce3_F-80" value="Document info" style="rounded=1;whiteSpace=wrap;html=1;fillColor=#bac8d3;strokeColor=#23445d;" parent="XVzJHZ976RR3-nmce3_F-79" vertex="1">
          <mxGeometry x="25" y="50" width="120" height="30" as="geometry" />
        </mxCell>
        <mxCell id="XVzJHZ976RR3-nmce3_F-83" value="" style="ellipse;whiteSpace=wrap;html=1;aspect=fixed;" parent="XVzJHZ976RR3-nmce3_F-79" vertex="1">
          <mxGeometry x="-10" y="30" width="20" height="20" as="geometry" />
        </mxCell>
        <mxCell id="XVzJHZ976RR3-nmce3_F-89" style="edgeStyle=orthogonalEdgeStyle;rounded=0;orthogonalLoop=1;jettySize=auto;html=1;" parent="1" source="XVzJHZ976RR3-nmce3_F-88" edge="1">
          <mxGeometry relative="1" as="geometry">
            <mxPoint x="301" y="520" as="targetPoint" />
          </mxGeometry>
        </mxCell>
        <mxCell id="XVzJHZ976RR3-nmce3_F-88" value="DocumentManager" style="shape=parallelogram;perimeter=parallelogramPerimeter;whiteSpace=wrap;html=1;fixedSize=1;" parent="1" vertex="1">
          <mxGeometry x="370" y="500" width="140" height="40" as="geometry" />
        </mxCell>
        <mxCell id="XVzJHZ976RR3-nmce3_F-92" style="edgeStyle=orthogonalEdgeStyle;rounded=0;orthogonalLoop=1;jettySize=auto;html=1;" parent="1" source="XVzJHZ976RR3-nmce3_F-91" edge="1">
          <mxGeometry relative="1" as="geometry">
            <mxPoint x="600" y="540" as="targetPoint" />
            <Array as="points">
              <mxPoint x="600" y="560" />
            </Array>
          </mxGeometry>
        </mxCell>
        <mxCell id="XVzJHZ976RR3-nmce3_F-93" value="back" style="edgeLabel;html=1;align=center;verticalAlign=middle;resizable=0;points=[];" parent="XVzJHZ976RR3-nmce3_F-92" vertex="1" connectable="0">
          <mxGeometry x="-0.9192" relative="1" as="geometry">
            <mxPoint x="1" y="-10" as="offset" />
          </mxGeometry>
        </mxCell>
        <mxCell id="XVzJHZ976RR3-nmce3_F-91" value="" style="ellipse;whiteSpace=wrap;html=1;aspect=fixed;" parent="1" vertex="1">
          <mxGeometry x="290" y="550" width="20" height="20" as="geometry" />
        </mxCell>
        <mxCell id="XVzJHZ976RR3-nmce3_F-97" value="" style="edgeStyle=orthogonalEdgeStyle;rounded=0;orthogonalLoop=1;jettySize=auto;html=1;entryX=0;entryY=0.5;entryDx=0;entryDy=0;" parent="1" source="XVzJHZ976RR3-nmce3_F-94" target="XVzJHZ976RR3-nmce3_F-96" edge="1">
          <mxGeometry relative="1" as="geometry">
            <mxPoint x="460" y="640" as="targetPoint" />
            <mxPoint x="210" y="590" as="sourcePoint" />
            <Array as="points">
              <mxPoint x="210" y="640" />
            </Array>
          </mxGeometry>
        </mxCell>
        <mxCell id="XVzJHZ976RR3-nmce3_F-98" value="submit" style="edgeLabel;html=1;align=center;verticalAlign=middle;resizable=0;points=[];" parent="XVzJHZ976RR3-nmce3_F-97" vertex="1" connectable="0">
          <mxGeometry x="-0.9169" y="2" relative="1" as="geometry">
            <mxPoint x="18" as="offset" />
          </mxGeometry>
        </mxCell>
        <mxCell id="XVzJHZ976RR3-nmce3_F-99" style="edgeStyle=orthogonalEdgeStyle;rounded=0;orthogonalLoop=1;jettySize=auto;html=1;entryX=0.25;entryY=1;entryDx=0;entryDy=0;" parent="1" source="XVzJHZ976RR3-nmce3_F-96" target="AZieTVKFx6yNV__6ZjwJ-21" edge="1">
          <mxGeometry relative="1" as="geometry">
            <mxPoint x="1220" y="640" as="targetPoint" />
            <Array as="points">
              <mxPoint x="635" y="640" />
            </Array>
          </mxGeometry>
        </mxCell>
        <mxCell id="XVzJHZ976RR3-nmce3_F-96" value="CreateDocument" style="shape=parallelogram;perimeter=parallelogramPerimeter;whiteSpace=wrap;html=1;fixedSize=1;" parent="1" vertex="1">
          <mxGeometry x="350" y="620" width="140" height="40" as="geometry" />
        </mxCell>
        <mxCell id="XVzJHZ976RR3-nmce3_F-103" style="edgeStyle=orthogonalEdgeStyle;rounded=0;orthogonalLoop=1;jettySize=auto;html=1;entryX=1;entryY=0.75;entryDx=0;entryDy=0;" parent="1" source="XVzJHZ976RR3-nmce3_F-101" target="XVzJHZ976RR3-nmce3_F-49" edge="1">
          <mxGeometry relative="1" as="geometry">
            <Array as="points">
              <mxPoint x="1140" y="461" />
            </Array>
          </mxGeometry>
        </mxCell>
        <mxCell id="XVzJHZ976RR3-nmce3_F-101" value="AvailableFolders" style="shape=parallelogram;perimeter=parallelogramPerimeter;whiteSpace=wrap;html=1;fixedSize=1;" parent="1" vertex="1">
          <mxGeometry x="1080" y="373" width="140" height="40" as="geometry" />
        </mxCell>
        <mxCell id="XVzJHZ976RR3-nmce3_F-77" style="edgeStyle=orthogonalEdgeStyle;rounded=0;orthogonalLoop=1;jettySize=auto;html=1;entryX=0;entryY=0.5;entryDx=0;entryDy=0;" parent="1" source="XVzJHZ976RR3-nmce3_F-55" target="XVzJHZ976RR3-nmce3_F-104" edge="1">
          <mxGeometry relative="1" as="geometry">
            <mxPoint x="1120" y="160" as="targetPoint" />
            <Array as="points">
              <mxPoint x="1080" y="180" />
              <mxPoint x="1080" y="130" />
            </Array>
          </mxGeometry>
        </mxCell>
        <mxCell id="XVzJHZ976RR3-nmce3_F-78" value="click" style="edgeLabel;html=1;align=center;verticalAlign=middle;resizable=0;points=[];" parent="XVzJHZ976RR3-nmce3_F-77" vertex="1" connectable="0">
          <mxGeometry x="-0.8785" y="1" relative="1" as="geometry">
            <mxPoint x="12" y="-9" as="offset" />
          </mxGeometry>
        </mxCell>
        <mxCell id="XVzJHZ976RR3-nmce3_F-102" style="edgeStyle=orthogonalEdgeStyle;rounded=0;orthogonalLoop=1;jettySize=auto;html=1;entryX=0.5;entryY=0;entryDx=0;entryDy=0;" parent="1" source="XVzJHZ976RR3-nmce3_F-54" target="XVzJHZ976RR3-nmce3_F-101" edge="1">
          <mxGeometry relative="1" as="geometry" />
        </mxCell>
        <mxCell id="XVzJHZ976RR3-nmce3_F-105" style="edgeStyle=orthogonalEdgeStyle;rounded=0;orthogonalLoop=1;jettySize=auto;html=1;exitX=1;exitY=0.5;exitDx=0;exitDy=0;" parent="1" source="XVzJHZ976RR3-nmce3_F-104" edge="1">
          <mxGeometry relative="1" as="geometry">
            <mxPoint x="1300" y="129.8888888888889" as="targetPoint" />
          </mxGeometry>
        </mxCell>
        <mxCell id="XVzJHZ976RR3-nmce3_F-104" value="GetDocumentDetails" style="shape=parallelogram;perimeter=parallelogramPerimeter;whiteSpace=wrap;html=1;fixedSize=1;" parent="1" vertex="1">
          <mxGeometry x="1110" y="110" width="140" height="40" as="geometry" />
        </mxCell>
        <mxCell id="XVzJHZ976RR3-nmce3_F-84" style="edgeStyle=orthogonalEdgeStyle;rounded=0;orthogonalLoop=1;jettySize=auto;html=1;" parent="1" source="XVzJHZ976RR3-nmce3_F-83" edge="1">
          <mxGeometry relative="1" as="geometry">
            <mxPoint x="1050" y="83" as="targetPoint" />
            <Array as="points">
              <mxPoint x="1110" y="83" />
            </Array>
          </mxGeometry>
        </mxCell>
        <mxCell id="XVzJHZ976RR3-nmce3_F-85" value="back" style="edgeLabel;html=1;align=center;verticalAlign=middle;resizable=0;points=[];" parent="XVzJHZ976RR3-nmce3_F-84" vertex="1" connectable="0">
          <mxGeometry x="-0.598" relative="1" as="geometry">
            <mxPoint x="28" y="-10" as="offset" />
          </mxGeometry>
        </mxCell>
        <mxCell id="XVzJHZ976RR3-nmce3_F-107" style="edgeStyle=orthogonalEdgeStyle;rounded=0;orthogonalLoop=1;jettySize=auto;html=1;exitX=0;exitY=0.5;exitDx=0;exitDy=0;entryX=0.75;entryY=1;entryDx=0;entryDy=0;" parent="1" source="XVzJHZ976RR3-nmce3_F-106" target="2" edge="1">
          <mxGeometry relative="1" as="geometry" />
        </mxCell>
        <mxCell id="XVzJHZ976RR3-nmce3_F-106" value="Logout" style="shape=parallelogram;perimeter=parallelogramPerimeter;whiteSpace=wrap;html=1;fixedSize=1;" parent="1" vertex="1">
          <mxGeometry x="360" y="310" width="100" height="40" as="geometry" />
        </mxCell>
        <mxCell id="XVzJHZ976RR3-nmce3_F-110" style="edgeStyle=orthogonalEdgeStyle;rounded=0;orthogonalLoop=1;jettySize=auto;html=1;exitX=0;exitY=0.5;exitDx=0;exitDy=0;" parent="1" source="XVzJHZ976RR3-nmce3_F-119" edge="1">
          <mxGeometry relative="1" as="geometry">
            <mxPoint x="340" y="220" as="targetPoint" />
          </mxGeometry>
        </mxCell>
        <mxCell id="XVzJHZ976RR3-nmce3_F-120" value="register&lt;br&gt;outcome" style="edgeLabel;html=1;align=center;verticalAlign=middle;resizable=0;points=[];" parent="XVzJHZ976RR3-nmce3_F-110" vertex="1" connectable="0">
          <mxGeometry x="-0.5813" relative="1" as="geometry">
            <mxPoint x="-2" y="-20" as="offset" />
          </mxGeometry>
        </mxCell>
        <mxCell id="XVzJHZ976RR3-nmce3_F-108" value="ShowIndex" style="shape=parallelogram;perimeter=parallelogramPerimeter;whiteSpace=wrap;html=1;fixedSize=1;" parent="1" vertex="1">
          <mxGeometry x="400" y="200" width="140" height="40" as="geometry" />
        </mxCell>
        <mxCell id="XVzJHZ976RR3-nmce3_F-112" style="edgeStyle=orthogonalEdgeStyle;rounded=0;orthogonalLoop=1;jettySize=auto;html=1;entryX=0;entryY=0.75;entryDx=0;entryDy=0;exitX=0.5;exitY=0;exitDx=0;exitDy=0;" parent="1" source="XVzJHZ976RR3-nmce3_F-116" target="2" edge="1">
          <mxGeometry relative="1" as="geometry">
            <Array as="points">
              <mxPoint x="70" y="210" />
            </Array>
          </mxGeometry>
        </mxCell>
        <mxCell id="XVzJHZ976RR3-nmce3_F-118" value="login outcome" style="edgeLabel;html=1;align=center;verticalAlign=middle;resizable=0;points=[];" parent="XVzJHZ976RR3-nmce3_F-112" vertex="1" connectable="0">
          <mxGeometry x="-0.8775" relative="1" as="geometry">
            <mxPoint x="40" as="offset" />
          </mxGeometry>
        </mxCell>
        <mxCell id="XVzJHZ976RR3-nmce3_F-111" value="ShowIndex" style="shape=parallelogram;perimeter=parallelogramPerimeter;whiteSpace=wrap;html=1;fixedSize=1;" parent="1" vertex="1">
          <mxGeometry y="300" width="140" height="40" as="geometry" />
        </mxCell>
        <mxCell id="XVzJHZ976RR3-nmce3_F-113" value="" style="ellipse;whiteSpace=wrap;html=1;aspect=fixed;" parent="1" vertex="1">
          <mxGeometry x="230" y="-90" width="20" height="20" as="geometry" />
        </mxCell>
        <mxCell id="XVzJHZ976RR3-nmce3_F-114" style="edgeStyle=orthogonalEdgeStyle;rounded=0;orthogonalLoop=1;jettySize=auto;html=1;entryX=0.444;entryY=0;entryDx=0;entryDy=0;entryPerimeter=0;" parent="1" source="XVzJHZ976RR3-nmce3_F-113" target="2" edge="1">
          <mxGeometry relative="1" as="geometry" />
        </mxCell>
        <mxCell id="XVzJHZ976RR3-nmce3_F-115" value="start" style="edgeLabel;html=1;align=center;verticalAlign=middle;resizable=0;points=[];" parent="XVzJHZ976RR3-nmce3_F-114" vertex="1" connectable="0">
          <mxGeometry x="-0.833" y="-1" relative="1" as="geometry">
            <mxPoint x="21" y="2" as="offset" />
          </mxGeometry>
        </mxCell>
        <mxCell id="XVzJHZ976RR3-nmce3_F-116" value="" style="ellipse;whiteSpace=wrap;html=1;aspect=fixed;" parent="1" vertex="1">
          <mxGeometry x="60" y="290" width="20" height="20" as="geometry" />
        </mxCell>
        <mxCell id="XVzJHZ976RR3-nmce3_F-119" value="" style="ellipse;whiteSpace=wrap;html=1;aspect=fixed;" parent="1" vertex="1">
          <mxGeometry x="400" y="210" width="20" height="20" as="geometry" />
        </mxCell>
        <mxCell id="XVzJHZ976RR3-nmce3_F-136" style="edgeStyle=orthogonalEdgeStyle;rounded=0;orthogonalLoop=1;jettySize=auto;html=1;entryX=0.25;entryY=0;entryDx=0;entryDy=0;" parent="1" source="XVzJHZ976RR3-nmce3_F-122" target="XVzJHZ976RR3-nmce3_F-133" edge="1">
          <mxGeometry relative="1" as="geometry">
            <Array as="points">
              <mxPoint x="665" y="700" />
              <mxPoint x="665" y="700" />
            </Array>
          </mxGeometry>
        </mxCell>
        <mxCell id="XVzJHZ976RR3-nmce3_F-122" value="FolderManager" style="shape=parallelogram;perimeter=parallelogramPerimeter;whiteSpace=wrap;html=1;fixedSize=1;" parent="1" vertex="1">
          <mxGeometry x="600" y="650" width="140" height="40" as="geometry" />
        </mxCell>
        <mxCell id="XVzJHZ976RR3-nmce3_F-133" value="DocumentManager.html" style="swimlane;whiteSpace=wrap" parent="1" vertex="1">
          <mxGeometry x="620" y="710" width="180" height="160" as="geometry" />
        </mxCell>
        <mxCell id="XVzJHZ976RR3-nmce3_F-134" value="&lt;div&gt;&amp;lt;&amp;lt;Form&amp;gt;&amp;gt;&lt;/div&gt;Folder Creation&lt;div&gt;[field: name]&lt;br&gt;[field: path location]&lt;br&gt;&lt;/div&gt;" style="rounded=1;whiteSpace=wrap;html=1;fillColor=#bac8d3;strokeColor=#23445d;" parent="XVzJHZ976RR3-nmce3_F-133" vertex="1">
          <mxGeometry x="30" y="35" width="120" height="95" as="geometry" />
        </mxCell>
        <mxCell id="XVzJHZ976RR3-nmce3_F-135" value="" style="ellipse;whiteSpace=wrap;html=1;aspect=fixed;" parent="XVzJHZ976RR3-nmce3_F-133" vertex="1">
          <mxGeometry x="80" y="120" width="20" height="20" as="geometry" />
        </mxCell>
        <mxCell id="XVzJHZ976RR3-nmce3_F-140" style="edgeStyle=orthogonalEdgeStyle;rounded=0;orthogonalLoop=1;jettySize=auto;html=1;entryX=0.25;entryY=1;entryDx=0;entryDy=0;exitX=0.5;exitY=1;exitDx=0;exitDy=0;" parent="1" source="XVzJHZ976RR3-nmce3_F-143" target="AZieTVKFx6yNV__6ZjwJ-43" edge="1">
          <mxGeometry relative="1" as="geometry">
            <mxPoint x="510" y="670" as="sourcePoint" />
            <Array as="points">
              <mxPoint x="424" y="680" />
              <mxPoint x="165" y="680" />
            </Array>
          </mxGeometry>
        </mxCell>
        <mxCell id="XVzJHZ976RR3-nmce3_F-138" value="" style="ellipse;whiteSpace=wrap;html=1;aspect=fixed;" parent="1" vertex="1">
          <mxGeometry x="470" y="630" width="20" height="20" as="geometry" />
        </mxCell>
        <mxCell id="XVzJHZ976RR3-nmce3_F-139" value="document created&lt;br&gt;successfully" style="edgeLabel;html=1;align=center;verticalAlign=middle;resizable=0;points=[];" parent="1" vertex="1" connectable="0">
          <mxGeometry x="540" y="620.0014285714284" as="geometry" />
        </mxCell>
        <mxCell id="XVzJHZ976RR3-nmce3_F-141" value="error document not created" style="edgeLabel;html=1;align=center;verticalAlign=middle;resizable=0;points=[];" parent="1" vertex="1" connectable="0">
          <mxGeometry x="390" y="690.0014285714284" as="geometry" />
        </mxCell>
        <mxCell id="XVzJHZ976RR3-nmce3_F-143" value="" style="ellipse;whiteSpace=wrap;html=1;aspect=fixed;" parent="1" vertex="1">
          <mxGeometry x="414" y="650" width="20" height="20" as="geometry" />
        </mxCell>
        <mxCell id="tXXKckapeqjJFmlOg_h2-4" value="Logout" style="shape=parallelogram;perimeter=parallelogramPerimeter;whiteSpace=wrap;html=1;fixedSize=1;" parent="1" vertex="1">
          <mxGeometry x="-10" y="510" width="100" height="40" as="geometry" />
        </mxCell>
        <mxCell id="tXXKckapeqjJFmlOg_h2-6" style="edgeStyle=orthogonalEdgeStyle;rounded=0;orthogonalLoop=1;jettySize=auto;html=1;entryX=0.885;entryY=0.564;entryDx=0;entryDy=0;entryPerimeter=0;" parent="1" source="tXXKckapeqjJFmlOg_h2-2" target="tXXKckapeqjJFmlOg_h2-4" edge="1">
          <mxGeometry relative="1" as="geometry" />
        </mxCell>
        <mxCell id="tXXKckapeqjJFmlOg_h2-7" value="logout" style="edgeLabel;html=1;align=center;verticalAlign=middle;resizable=0;points=[];" parent="tXXKckapeqjJFmlOg_h2-6" vertex="1" connectable="0">
          <mxGeometry x="-0.5142" relative="1" as="geometry">
            <mxPoint x="-4" y="17" as="offset" />
          </mxGeometry>
        </mxCell>
        <mxCell id="0mZMWaZa_6GVQz3xprXe-2" value="&lt;font style=&quot;font-size: 30px;&quot;&gt;OBSOLETE&lt;/font&gt;" style="text;html=1;align=center;verticalAlign=middle;resizable=0;points=[];autosize=1;strokeColor=none;fillColor=none;" vertex="1" parent="1">
          <mxGeometry x="505" y="-132" width="190" height="50" as="geometry" />
        </mxCell>
      </root>
    </mxGraphModel>
  </diagram>
  <diagram id="llRCDW236qSsL3KgBAAM" name="Page-2">
    <mxGraphModel dx="901" dy="534" grid="1" gridSize="10" guides="1" tooltips="1" connect="1" arrows="1" fold="1" page="1" pageScale="1" pageWidth="827" pageHeight="1169" math="0" shadow="0">
      <root>
        <mxCell id="0" />
        <mxCell id="1" parent="0" />
        <mxCell id="WDdBrlhEp-xonqt2Dw6G-1" value="index.html" style="swimlane;whiteSpace=wrap" vertex="1" parent="1">
          <mxGeometry x="200" y="80" width="180" height="253" as="geometry">
            <mxRectangle x="20" y="-130" width="100" height="30" as="alternateBounds" />
          </mxGeometry>
        </mxCell>
        <mxCell id="WDdBrlhEp-xonqt2Dw6G-2" value="&amp;lt;&amp;lt;Form&amp;gt;&amp;gt;&lt;br&gt;Login&lt;br&gt;[field: username]&lt;div&gt;[field: password]&lt;/div&gt;" style="rounded=1;whiteSpace=wrap;html=1;fillColor=#bac8d3;strokeColor=#23445d;" vertex="1" parent="WDdBrlhEp-xonqt2Dw6G-1">
          <mxGeometry x="30" y="147" width="120" height="80" as="geometry" />
        </mxCell>
        <mxCell id="WDdBrlhEp-xonqt2Dw6G-3" value="" style="ellipse;whiteSpace=wrap;html=1;aspect=fixed;" vertex="1" parent="WDdBrlhEp-xonqt2Dw6G-1">
          <mxGeometry x="80" y="220" width="20" height="20" as="geometry" />
        </mxCell>
        <mxCell id="WDdBrlhEp-xonqt2Dw6G-4" value="&amp;lt;&amp;lt;Form&amp;gt;&amp;gt;&lt;br&gt;Register&lt;div&gt;[field: username]&lt;/div&gt;&lt;div&gt;[field: password]&lt;br&gt;&lt;/div&gt;&lt;div&gt;[field: email]&lt;br&gt;&lt;/div&gt;" style="rounded=1;whiteSpace=wrap;html=1;fillColor=#bac8d3;strokeColor=#23445d;" vertex="1" parent="WDdBrlhEp-xonqt2Dw6G-1">
          <mxGeometry x="30" y="40" width="120" height="87" as="geometry" />
        </mxCell>
        <mxCell id="WDdBrlhEp-xonqt2Dw6G-5" value="" style="ellipse;whiteSpace=wrap;html=1;aspect=fixed;" vertex="1" parent="WDdBrlhEp-xonqt2Dw6G-1">
          <mxGeometry x="140" y="73.5" width="20" height="20" as="geometry" />
        </mxCell>
        <mxCell id="WDdBrlhEp-xonqt2Dw6G-6" value="Register" style="shape=parallelogram;perimeter=parallelogramPerimeter;whiteSpace=wrap;html=1;fixedSize=1;" vertex="1" parent="1">
          <mxGeometry x="430" y="143" width="140" height="40" as="geometry" />
        </mxCell>
        <mxCell id="WDdBrlhEp-xonqt2Dw6G-7" value="" style="endArrow=classic;html=1;rounded=0;exitX=0.5;exitY=1;exitDx=0;exitDy=0;entryX=0.5;entryY=0;entryDx=0;entryDy=0;" edge="1" parent="1" source="WDdBrlhEp-xonqt2Dw6G-30" target="WDdBrlhEp-xonqt2Dw6G-35">
          <mxGeometry width="50" height="50" relative="1" as="geometry">
            <mxPoint x="540" y="183" as="sourcePoint" />
            <mxPoint x="380" y="230" as="targetPoint" />
            <Array as="points">
              <mxPoint x="510" y="230" />
            </Array>
          </mxGeometry>
        </mxCell>
        <mxCell id="WDdBrlhEp-xonqt2Dw6G-8" value="credentials&lt;div&gt;not valid&lt;/div&gt;" style="edgeLabel;html=1;align=center;verticalAlign=middle;resizable=0;points=[];" vertex="1" connectable="0" parent="WDdBrlhEp-xonqt2Dw6G-7">
          <mxGeometry x="0.3326" y="-2" relative="1" as="geometry">
            <mxPoint x="-28" y="-31" as="offset" />
          </mxGeometry>
        </mxCell>
        <mxCell id="WDdBrlhEp-xonqt2Dw6G-9" value="" style="ellipse;whiteSpace=wrap;html=1;aspect=fixed;" vertex="1" parent="1">
          <mxGeometry x="550" y="153" width="20" height="20" as="geometry" />
        </mxCell>
        <mxCell id="WDdBrlhEp-xonqt2Dw6G-10" value="" style="endArrow=classic;html=1;rounded=0;exitX=1;exitY=0.5;exitDx=0;exitDy=0;entryX=1;entryY=0.5;entryDx=0;entryDy=0;" edge="1" parent="1" source="WDdBrlhEp-xonqt2Dw6G-9" target="WDdBrlhEp-xonqt2Dw6G-35">
          <mxGeometry width="50" height="50" relative="1" as="geometry">
            <mxPoint x="580" y="243" as="sourcePoint" />
            <mxPoint x="380" y="270" as="targetPoint" />
            <Array as="points">
              <mxPoint x="600" y="163" />
              <mxPoint x="600" y="280" />
            </Array>
          </mxGeometry>
        </mxCell>
        <mxCell id="WDdBrlhEp-xonqt2Dw6G-11" value="registration complete" style="edgeLabel;html=1;align=center;verticalAlign=middle;resizable=0;points=[];" vertex="1" connectable="0" parent="WDdBrlhEp-xonqt2Dw6G-10">
          <mxGeometry x="0.3878" y="1" relative="1" as="geometry">
            <mxPoint x="29" y="-102" as="offset" />
          </mxGeometry>
        </mxCell>
        <mxCell id="WDdBrlhEp-xonqt2Dw6G-12" value="Login" style="shape=parallelogram;perimeter=parallelogramPerimeter;whiteSpace=wrap;html=1;fixedSize=1;" vertex="1" parent="1">
          <mxGeometry x="220" y="433" width="140" height="40" as="geometry" />
        </mxCell>
        <mxCell id="WDdBrlhEp-xonqt2Dw6G-13" style="edgeStyle=orthogonalEdgeStyle;rounded=0;orthogonalLoop=1;jettySize=auto;html=1;entryX=0;entryY=0.5;entryDx=0;entryDy=0;" edge="1" parent="1" source="WDdBrlhEp-xonqt2Dw6G-15" target="WDdBrlhEp-xonqt2Dw6G-20">
          <mxGeometry relative="1" as="geometry" />
        </mxCell>
        <mxCell id="WDdBrlhEp-xonqt2Dw6G-14" value="userId -&amp;gt; session" style="edgeLabel;html=1;align=center;verticalAlign=middle;resizable=0;points=[];" vertex="1" connectable="0" parent="WDdBrlhEp-xonqt2Dw6G-13">
          <mxGeometry x="-0.8062" relative="1" as="geometry">
            <mxPoint x="39" y="-10" as="offset" />
          </mxGeometry>
        </mxCell>
        <mxCell id="WDdBrlhEp-xonqt2Dw6G-15" value="" style="ellipse;whiteSpace=wrap;html=1;aspect=fixed;" vertex="1" parent="1">
          <mxGeometry x="340" y="443" width="20" height="20" as="geometry" />
        </mxCell>
        <mxCell id="WDdBrlhEp-xonqt2Dw6G-16" style="edgeStyle=orthogonalEdgeStyle;rounded=0;orthogonalLoop=1;jettySize=auto;html=1;entryX=0.5;entryY=1;entryDx=0;entryDy=0;" edge="1" parent="1" source="WDdBrlhEp-xonqt2Dw6G-18" target="WDdBrlhEp-xonqt2Dw6G-38">
          <mxGeometry relative="1" as="geometry">
            <mxPoint x="190" y="380" as="targetPoint" />
          </mxGeometry>
        </mxCell>
        <mxCell id="WDdBrlhEp-xonqt2Dw6G-17" value="invalid credentials" style="edgeLabel;html=1;align=center;verticalAlign=middle;resizable=0;points=[];" vertex="1" connectable="0" parent="WDdBrlhEp-xonqt2Dw6G-16">
          <mxGeometry x="-0.7565" y="3" relative="1" as="geometry">
            <mxPoint x="-30" y="-13" as="offset" />
          </mxGeometry>
        </mxCell>
        <mxCell id="WDdBrlhEp-xonqt2Dw6G-18" value="" style="ellipse;whiteSpace=wrap;html=1;aspect=fixed;" vertex="1" parent="1">
          <mxGeometry x="220" y="443" width="20" height="20" as="geometry" />
        </mxCell>
        <mxCell id="WDdBrlhEp-xonqt2Dw6G-19" style="edgeStyle=orthogonalEdgeStyle;rounded=0;orthogonalLoop=1;jettySize=auto;html=1;" edge="1" parent="1" source="WDdBrlhEp-xonqt2Dw6G-20">
          <mxGeometry relative="1" as="geometry">
            <mxPoint x="619.9999999999999" y="453" as="targetPoint" />
          </mxGeometry>
        </mxCell>
        <mxCell id="WDdBrlhEp-xonqt2Dw6G-20" value="ShowHome" style="shape=parallelogram;perimeter=parallelogramPerimeter;whiteSpace=wrap;html=1;fixedSize=1;" vertex="1" parent="1">
          <mxGeometry x="460" y="433" width="140" height="40" as="geometry" />
        </mxCell>
        <mxCell id="WDdBrlhEp-xonqt2Dw6G-23" value="" style="endArrow=classic;html=1;rounded=0;entryX=0;entryY=0.5;entryDx=0;entryDy=0;" edge="1" parent="1" target="WDdBrlhEp-xonqt2Dw6G-6">
          <mxGeometry width="50" height="50" relative="1" as="geometry">
            <mxPoint x="360" y="163" as="sourcePoint" />
            <mxPoint x="480" y="163" as="targetPoint" />
          </mxGeometry>
        </mxCell>
        <mxCell id="WDdBrlhEp-xonqt2Dw6G-24" style="edgeStyle=orthogonalEdgeStyle;rounded=0;orthogonalLoop=1;jettySize=auto;html=1;entryX=1;entryY=0.5;entryDx=0;entryDy=0;" edge="1" parent="1" source="WDdBrlhEp-xonqt2Dw6G-21" target="WDdBrlhEp-xonqt2Dw6G-32">
          <mxGeometry relative="1" as="geometry">
            <mxPoint x="490" y="388" as="targetPoint" />
            <Array as="points" />
          </mxGeometry>
        </mxCell>
        <mxCell id="WDdBrlhEp-xonqt2Dw6G-25" value="logout" style="edgeLabel;html=1;align=center;verticalAlign=middle;resizable=0;points=[];" vertex="1" connectable="0" parent="WDdBrlhEp-xonqt2Dw6G-24">
          <mxGeometry x="-0.7849" y="3" relative="1" as="geometry">
            <mxPoint x="-7" y="-13" as="offset" />
          </mxGeometry>
        </mxCell>
        <mxCell id="WDdBrlhEp-xonqt2Dw6G-26" value="submit" style="text;html=1;align=center;verticalAlign=middle;whiteSpace=wrap;rounded=0;" vertex="1" parent="1">
          <mxGeometry x="350" y="160" width="60" height="30" as="geometry" />
        </mxCell>
        <mxCell id="WDdBrlhEp-xonqt2Dw6G-28" style="edgeStyle=orthogonalEdgeStyle;rounded=0;orthogonalLoop=1;jettySize=auto;html=1;entryX=0.5;entryY=0;entryDx=0;entryDy=0;" edge="1" parent="1" source="WDdBrlhEp-xonqt2Dw6G-3" target="WDdBrlhEp-xonqt2Dw6G-12">
          <mxGeometry relative="1" as="geometry" />
        </mxCell>
        <mxCell id="WDdBrlhEp-xonqt2Dw6G-29" value="submit" style="edgeLabel;html=1;align=center;verticalAlign=middle;resizable=0;points=[];" vertex="1" connectable="0" parent="WDdBrlhEp-xonqt2Dw6G-28">
          <mxGeometry x="-0.7982" y="1" relative="1" as="geometry">
            <mxPoint x="29" y="-11" as="offset" />
          </mxGeometry>
        </mxCell>
        <mxCell id="WDdBrlhEp-xonqt2Dw6G-30" value="" style="ellipse;whiteSpace=wrap;html=1;aspect=fixed;" vertex="1" parent="1">
          <mxGeometry x="500" y="173" width="20" height="20" as="geometry" />
        </mxCell>
        <mxCell id="WDdBrlhEp-xonqt2Dw6G-31" style="edgeStyle=orthogonalEdgeStyle;rounded=0;orthogonalLoop=1;jettySize=auto;html=1;exitX=0;exitY=0.5;exitDx=0;exitDy=0;entryX=0.75;entryY=1;entryDx=0;entryDy=0;" edge="1" parent="1" source="WDdBrlhEp-xonqt2Dw6G-32" target="WDdBrlhEp-xonqt2Dw6G-1">
          <mxGeometry relative="1" as="geometry" />
        </mxCell>
        <mxCell id="WDdBrlhEp-xonqt2Dw6G-32" value="Logout" style="shape=parallelogram;perimeter=parallelogramPerimeter;whiteSpace=wrap;html=1;fixedSize=1;" vertex="1" parent="1">
          <mxGeometry x="400" y="360" width="100" height="40" as="geometry" />
        </mxCell>
        <mxCell id="WDdBrlhEp-xonqt2Dw6G-33" style="edgeStyle=orthogonalEdgeStyle;rounded=0;orthogonalLoop=1;jettySize=auto;html=1;exitX=0;exitY=0.5;exitDx=0;exitDy=0;" edge="1" parent="1" source="WDdBrlhEp-xonqt2Dw6G-35">
          <mxGeometry relative="1" as="geometry">
            <mxPoint x="380" y="280" as="targetPoint" />
            <mxPoint x="439.9999999999999" y="280" as="sourcePoint" />
          </mxGeometry>
        </mxCell>
        <mxCell id="WDdBrlhEp-xonqt2Dw6G-35" value="ShowIndex" style="shape=parallelogram;perimeter=parallelogramPerimeter;whiteSpace=wrap;html=1;fixedSize=1;" vertex="1" parent="1">
          <mxGeometry x="440" y="260" width="140" height="40" as="geometry" />
        </mxCell>
        <mxCell id="WDdBrlhEp-xonqt2Dw6G-36" style="edgeStyle=orthogonalEdgeStyle;rounded=0;orthogonalLoop=1;jettySize=auto;html=1;entryX=0;entryY=0.75;entryDx=0;entryDy=0;exitX=0.5;exitY=0;exitDx=0;exitDy=0;" edge="1" parent="1" source="WDdBrlhEp-xonqt2Dw6G-38" target="WDdBrlhEp-xonqt2Dw6G-1">
          <mxGeometry relative="1" as="geometry">
            <Array as="points">
              <mxPoint x="110" y="270" />
            </Array>
            <mxPoint x="110" y="350" as="sourcePoint" />
          </mxGeometry>
        </mxCell>
        <mxCell id="WDdBrlhEp-xonqt2Dw6G-38" value="ShowIndex" style="shape=parallelogram;perimeter=parallelogramPerimeter;whiteSpace=wrap;html=1;fixedSize=1;" vertex="1" parent="1">
          <mxGeometry x="40" y="360" width="140" height="40" as="geometry" />
        </mxCell>
        <mxCell id="63bIBzmgta2OCi2KAOqR-1" value="Home.html" style="swimlane;whiteSpace=wrap" vertex="1" parent="1">
          <mxGeometry x="620" y="320" width="180" height="253" as="geometry">
            <mxRectangle x="20" y="-130" width="100" height="30" as="alternateBounds" />
          </mxGeometry>
        </mxCell>
        <mxCell id="rjOO5wABnbOU6MtfAI31-2" value="&lt;div&gt;&amp;lt;&amp;lt;Anchor&amp;gt;&amp;gt;&lt;/div&gt;Document Manager" style="rounded=1;whiteSpace=wrap;html=1;fillColor=#bac8d3;strokeColor=#23445d;" vertex="1" parent="63bIBzmgta2OCi2KAOqR-1">
          <mxGeometry x="20" y="97.5" width="140" height="58" as="geometry" />
        </mxCell>
        <mxCell id="rjOO5wABnbOU6MtfAI31-3" value="&lt;div&gt;&amp;lt;&amp;lt;Anchor&amp;gt;&amp;gt;&lt;/div&gt;Folder Manager" style="rounded=1;whiteSpace=wrap;html=1;fillColor=#bac8d3;strokeColor=#23445d;" vertex="1" parent="63bIBzmgta2OCi2KAOqR-1">
          <mxGeometry x="30" y="170" width="120" height="60" as="geometry" />
        </mxCell>
        <mxCell id="WDdBrlhEp-xonqt2Dw6G-21" value="" style="ellipse;whiteSpace=wrap;html=1;aspect=fixed;" vertex="1" parent="1">
          <mxGeometry x="610" y="370" width="20" height="20" as="geometry" />
        </mxCell>
        <mxCell id="rjOO5wABnbOU6MtfAI31-1" value="&lt;div&gt;&amp;lt;&amp;lt;Anchor&amp;gt;&amp;gt;&lt;/div&gt;Folders tree" style="rounded=1;whiteSpace=wrap;html=1;fillColor=#bac8d3;strokeColor=#23445d;" vertex="1" parent="1">
          <mxGeometry x="650" y="350" width="120" height="60" as="geometry" />
        </mxCell>
      </root>
    </mxGraphModel>
  </diagram>
  <diagram id="j3JiXNYIws3I8orakBOl" name="Page-3">
    <mxGraphModel dx="1151" dy="682" grid="1" gridSize="10" guides="1" tooltips="1" connect="1" arrows="1" fold="1" page="1" pageScale="1" pageWidth="827" pageHeight="1169" math="0" shadow="0">
      <root>
        <mxCell id="0" />
        <mxCell id="1" parent="0" />
        <mxCell id="Jtffb_SVWF1ur47a9cjq-1" value="Home.html" style="swimlane;whiteSpace=wrap" vertex="1" parent="1">
          <mxGeometry x="390" y="60" width="200" height="272" as="geometry" />
        </mxCell>
        <mxCell id="Jtffb_SVWF1ur47a9cjq-2" value="&lt;div&gt;&amp;lt;&amp;lt;Anchor&amp;gt;&amp;gt;&lt;/div&gt;Folders tree" style="rounded=1;whiteSpace=wrap;html=1;fillColor=#bac8d3;strokeColor=#23445d;" vertex="1" parent="Jtffb_SVWF1ur47a9cjq-1">
          <mxGeometry x="40" y="40" width="120" height="60" as="geometry" />
        </mxCell>
        <mxCell id="Jtffb_SVWF1ur47a9cjq-3" value="&lt;div&gt;&amp;lt;&amp;lt;Anchor&amp;gt;&amp;gt;&lt;/div&gt;Document Manager" style="rounded=1;whiteSpace=wrap;html=1;fillColor=#bac8d3;strokeColor=#23445d;" vertex="1" parent="Jtffb_SVWF1ur47a9cjq-1">
          <mxGeometry x="30" y="113" width="140" height="65" as="geometry" />
        </mxCell>
        <mxCell id="Jtffb_SVWF1ur47a9cjq-4" value="&lt;div&gt;&amp;lt;&amp;lt;Anchor&amp;gt;&amp;gt;&lt;/div&gt;Folder Manager" style="rounded=1;whiteSpace=wrap;html=1;fillColor=#bac8d3;strokeColor=#23445d;" vertex="1" parent="Jtffb_SVWF1ur47a9cjq-1">
          <mxGeometry x="40" y="190" width="120" height="60" as="geometry" />
        </mxCell>
        <mxCell id="Jtffb_SVWF1ur47a9cjq-5" value="" style="ellipse;whiteSpace=wrap;html=1;aspect=fixed;" vertex="1" parent="Jtffb_SVWF1ur47a9cjq-1">
          <mxGeometry x="150" y="60" width="20" height="20" as="geometry" />
        </mxCell>
        <mxCell id="Jtffb_SVWF1ur47a9cjq-9" value="click" style="text;html=1;align=center;verticalAlign=middle;resizable=0;points=[];autosize=1;strokeColor=none;fillColor=none;" vertex="1" parent="Jtffb_SVWF1ur47a9cjq-1">
          <mxGeometry x="160" y="40" width="50" height="30" as="geometry" />
        </mxCell>
        <mxCell id="ykRAdF48805Dj7-B3hyu-1" value="" style="ellipse;whiteSpace=wrap;html=1;aspect=fixed;" vertex="1" parent="Jtffb_SVWF1ur47a9cjq-1">
          <mxGeometry x="-10" y="70" width="20" height="20" as="geometry" />
        </mxCell>
        <mxCell id="ly-MyDQbVd1uz6o1lVcv-1" style="edgeStyle=orthogonalEdgeStyle;rounded=0;orthogonalLoop=1;jettySize=auto;html=1;entryX=0.5;entryY=0;entryDx=0;entryDy=0;" edge="1" parent="1" source="GR22HtpA44PEYMWUhLoM-1" target="V3CcNHAtmHuNCSfje6Ld-1">
          <mxGeometry relative="1" as="geometry">
            <Array as="points">
              <mxPoint x="640" y="350" />
              <mxPoint x="490" y="350" />
            </Array>
          </mxGeometry>
        </mxCell>
        <mxCell id="GR22HtpA44PEYMWUhLoM-1" value="ShowFolderContent" style="shape=parallelogram;perimeter=parallelogramPerimeter;whiteSpace=wrap;html=1;fixedSize=1;" vertex="1" parent="1">
          <mxGeometry x="600" y="210" width="140" height="40" as="geometry" />
        </mxCell>
        <mxCell id="V3CcNHAtmHuNCSfje6Ld-1" value="FolderContent.html" style="swimlane;whiteSpace=wrap" vertex="1" parent="1">
          <mxGeometry x="380" y="390" width="220" height="260" as="geometry" />
        </mxCell>
        <mxCell id="V3CcNHAtmHuNCSfje6Ld-2" value="&lt;div&gt;&amp;lt;&amp;lt;Anchor&amp;gt;&amp;gt;&lt;br&gt;Subfolders&lt;br&gt;Parent folder&lt;/div&gt;" style="rounded=1;whiteSpace=wrap;html=1;fillColor=#bac8d3;strokeColor=#23445d;" vertex="1" parent="V3CcNHAtmHuNCSfje6Ld-1">
          <mxGeometry x="50" y="30" width="120" height="60" as="geometry" />
        </mxCell>
        <mxCell id="V3CcNHAtmHuNCSfje6Ld-3" value="" style="ellipse;whiteSpace=wrap;html=1;aspect=fixed;" vertex="1" parent="V3CcNHAtmHuNCSfje6Ld-1">
          <mxGeometry x="160" y="50" width="20" height="20" as="geometry" />
        </mxCell>
        <mxCell id="V3CcNHAtmHuNCSfje6Ld-4" value="Documents list" style="rounded=1;whiteSpace=wrap;html=1;fillColor=#bac8d3;strokeColor=#23445d;" vertex="1" parent="V3CcNHAtmHuNCSfje6Ld-1">
          <mxGeometry x="50" y="100" width="120" height="30" as="geometry" />
        </mxCell>
        <mxCell id="V3CcNHAtmHuNCSfje6Ld-5" value="&amp;lt;&amp;lt;Anchor&amp;gt;&amp;gt;&lt;br&gt;Access (document)" style="rounded=1;whiteSpace=wrap;html=1;fillColor=#bac8d3;strokeColor=#23445d;" vertex="1" parent="V3CcNHAtmHuNCSfje6Ld-1">
          <mxGeometry x="50" y="140" width="120" height="40" as="geometry" />
        </mxCell>
        <mxCell id="V3CcNHAtmHuNCSfje6Ld-6" value="&amp;lt;&amp;lt;Anchor&amp;gt;&amp;gt;&lt;br&gt;Move (document)" style="rounded=1;whiteSpace=wrap;html=1;fillColor=#bac8d3;strokeColor=#23445d;" vertex="1" parent="V3CcNHAtmHuNCSfje6Ld-1">
          <mxGeometry x="50" y="190" width="120" height="40" as="geometry" />
        </mxCell>
        <mxCell id="V3CcNHAtmHuNCSfje6Ld-7" value="" style="ellipse;whiteSpace=wrap;html=1;aspect=fixed;" vertex="1" parent="V3CcNHAtmHuNCSfje6Ld-1">
          <mxGeometry x="40" y="200" width="20" height="20" as="geometry" />
        </mxCell>
        <mxCell id="V3CcNHAtmHuNCSfje6Ld-8" value="" style="ellipse;whiteSpace=wrap;html=1;aspect=fixed;" vertex="1" parent="V3CcNHAtmHuNCSfje6Ld-1">
          <mxGeometry x="40" y="150" width="20" height="20" as="geometry" />
        </mxCell>
        <mxCell id="ly-MyDQbVd1uz6o1lVcv-9" style="edgeStyle=orthogonalEdgeStyle;rounded=0;orthogonalLoop=1;jettySize=auto;html=1;exitX=0.787;exitY=0;exitDx=0;exitDy=0;exitPerimeter=0;" edge="1" parent="1" source="ly-MyDQbVd1uz6o1lVcv-8">
          <mxGeometry relative="1" as="geometry">
            <mxPoint x="750" y="550" as="sourcePoint" />
            <mxPoint x="590" y="90" as="targetPoint" />
            <Array as="points">
              <mxPoint x="750" y="378" />
              <mxPoint x="750" y="378" />
              <mxPoint x="750" y="90" />
            </Array>
          </mxGeometry>
        </mxCell>
        <mxCell id="ly-MyDQbVd1uz6o1lVcv-8" value="ShowHome" style="shape=parallelogram;perimeter=parallelogramPerimeter;whiteSpace=wrap;html=1;fixedSize=1;" vertex="1" parent="1">
          <mxGeometry x="690" y="420" width="107" height="40" as="geometry" />
        </mxCell>
        <mxCell id="Jtffb_SVWF1ur47a9cjq-8" value="" style="endArrow=classic;html=1;rounded=0;exitX=1;exitY=0.5;exitDx=0;exitDy=0;entryX=0.5;entryY=0;entryDx=0;entryDy=0;" edge="1" parent="1" source="Jtffb_SVWF1ur47a9cjq-5" target="GR22HtpA44PEYMWUhLoM-1">
          <mxGeometry width="50" height="50" relative="1" as="geometry">
            <mxPoint x="580" y="132" as="sourcePoint" />
            <mxPoint x="650" y="130" as="targetPoint" />
            <Array as="points">
              <mxPoint x="670" y="130" />
            </Array>
          </mxGeometry>
        </mxCell>
        <mxCell id="ly-MyDQbVd1uz6o1lVcv-7" style="edgeStyle=orthogonalEdgeStyle;rounded=0;orthogonalLoop=1;jettySize=auto;html=1;entryX=0.571;entryY=1.019;entryDx=0;entryDy=0;entryPerimeter=0;" edge="1" parent="1" source="ly-MyDQbVd1uz6o1lVcv-3" target="ly-MyDQbVd1uz6o1lVcv-8">
          <mxGeometry relative="1" as="geometry">
            <mxPoint x="720" y="590" as="targetPoint" />
          </mxGeometry>
        </mxCell>
        <mxCell id="ly-MyDQbVd1uz6o1lVcv-10" value="back" style="edgeLabel;html=1;align=center;verticalAlign=middle;resizable=0;points=[];" vertex="1" connectable="0" parent="ly-MyDQbVd1uz6o1lVcv-7">
          <mxGeometry x="-0.8842" y="2" relative="1" as="geometry">
            <mxPoint x="2" y="-8" as="offset" />
          </mxGeometry>
        </mxCell>
        <mxCell id="UCi2K0LEi-RxiySuHPgQ-1" style="edgeStyle=orthogonalEdgeStyle;rounded=0;orthogonalLoop=1;jettySize=auto;html=1;entryX=0.5;entryY=1;entryDx=0;entryDy=0;" edge="1" parent="1" source="V3CcNHAtmHuNCSfje6Ld-3" target="GR22HtpA44PEYMWUhLoM-1">
          <mxGeometry relative="1" as="geometry" />
        </mxCell>
        <mxCell id="UCi2K0LEi-RxiySuHPgQ-2" value="click" style="edgeLabel;html=1;align=center;verticalAlign=middle;resizable=0;points=[];" vertex="1" connectable="0" parent="UCi2K0LEi-RxiySuHPgQ-1">
          <mxGeometry x="-0.9293" y="1" relative="1" as="geometry">
            <mxPoint x="4" y="-9" as="offset" />
          </mxGeometry>
        </mxCell>
        <mxCell id="2HKMo0m_3n5zOk2g3--J-1" value="DocumentDetails.html" style="swimlane;whiteSpace=wrap" vertex="1" parent="1">
          <mxGeometry x="89" y="360" width="171" height="130" as="geometry" />
        </mxCell>
        <mxCell id="2HKMo0m_3n5zOk2g3--J-2" value="Document info" style="rounded=1;whiteSpace=wrap;html=1;fillColor=#bac8d3;strokeColor=#23445d;" vertex="1" parent="2HKMo0m_3n5zOk2g3--J-1">
          <mxGeometry x="25" y="40" width="120" height="50" as="geometry" />
        </mxCell>
        <mxCell id="2HKMo0m_3n5zOk2g3--J-4" style="edgeStyle=orthogonalEdgeStyle;rounded=0;orthogonalLoop=1;jettySize=auto;html=1;exitX=0;exitY=0.5;exitDx=0;exitDy=0;" edge="1" parent="1" source="2HKMo0m_3n5zOk2g3--J-5">
          <mxGeometry relative="1" as="geometry">
            <mxPoint x="89" y="446.8888888888889" as="targetPoint" />
            <Array as="points">
              <mxPoint x="60" y="300" />
              <mxPoint x="60" y="447" />
            </Array>
          </mxGeometry>
        </mxCell>
        <mxCell id="2HKMo0m_3n5zOk2g3--J-5" value="GetDocumentDetails" style="shape=parallelogram;perimeter=parallelogramPerimeter;whiteSpace=wrap;html=1;fixedSize=1;" vertex="1" parent="1">
          <mxGeometry x="85" y="280" width="140" height="40" as="geometry" />
        </mxCell>
        <mxCell id="2HKMo0m_3n5zOk2g3--J-10" style="edgeStyle=orthogonalEdgeStyle;rounded=0;orthogonalLoop=1;jettySize=auto;html=1;" edge="1" parent="1" target="2HKMo0m_3n5zOk2g3--J-5">
          <mxGeometry relative="1" as="geometry">
            <mxPoint x="420" y="550" as="sourcePoint" />
            <Array as="points">
              <mxPoint x="320" y="550" />
              <mxPoint x="320" y="300" />
            </Array>
          </mxGeometry>
        </mxCell>
        <mxCell id="2HKMo0m_3n5zOk2g3--J-13" value="click" style="edgeLabel;html=1;align=center;verticalAlign=middle;resizable=0;points=[];" vertex="1" connectable="0" parent="2HKMo0m_3n5zOk2g3--J-10">
          <mxGeometry x="-0.9199" y="-1" relative="1" as="geometry">
            <mxPoint x="-2" y="-9" as="offset" />
          </mxGeometry>
        </mxCell>
        <mxCell id="2HKMo0m_3n5zOk2g3--J-12" style="edgeStyle=orthogonalEdgeStyle;rounded=0;orthogonalLoop=1;jettySize=auto;html=1;" edge="1" parent="1" source="2HKMo0m_3n5zOk2g3--J-11">
          <mxGeometry relative="1" as="geometry">
            <mxPoint x="380" y="580" as="targetPoint" />
            <Array as="points">
              <mxPoint x="340" y="580" />
              <mxPoint x="340" y="580" />
            </Array>
          </mxGeometry>
        </mxCell>
        <mxCell id="2HKMo0m_3n5zOk2g3--J-11" value="ShowFolderContent" style="shape=parallelogram;perimeter=parallelogramPerimeter;whiteSpace=wrap;html=1;fixedSize=1;" vertex="1" parent="1">
          <mxGeometry x="104" y="560" width="140" height="40" as="geometry" />
        </mxCell>
        <mxCell id="2HKMo0m_3n5zOk2g3--J-9" style="edgeStyle=orthogonalEdgeStyle;rounded=0;orthogonalLoop=1;jettySize=auto;html=1;" edge="1" parent="1" source="2HKMo0m_3n5zOk2g3--J-8">
          <mxGeometry relative="1" as="geometry">
            <mxPoint x="174" y="560" as="targetPoint" />
            <Array as="points">
              <mxPoint x="174" y="510" />
              <mxPoint x="174" y="510" />
            </Array>
          </mxGeometry>
        </mxCell>
        <mxCell id="X3lZZAMesxP48PVonPVM-1" value="AvailableFolders.html" style="swimlane;whiteSpace=wrap" vertex="1" parent="1">
          <mxGeometry x="130" y="730" width="170" height="150" as="geometry" />
        </mxCell>
        <mxCell id="X3lZZAMesxP48PVonPVM-2" value="&amp;lt;&amp;lt;Anchor&amp;gt;&amp;gt;&lt;br&gt;Folders destination" style="rounded=1;whiteSpace=wrap;html=1;fillColor=#bac8d3;strokeColor=#23445d;" vertex="1" parent="X3lZZAMesxP48PVonPVM-1">
          <mxGeometry x="27.5" y="50" width="115" height="60" as="geometry" />
        </mxCell>
        <mxCell id="X3lZZAMesxP48PVonPVM-3" value="" style="ellipse;whiteSpace=wrap;html=1;aspect=fixed;" vertex="1" parent="X3lZZAMesxP48PVonPVM-1">
          <mxGeometry x="130" y="65" width="20" height="20" as="geometry" />
        </mxCell>
        <mxCell id="1chSAgp_iak5nZk13jcw-2" style="edgeStyle=orthogonalEdgeStyle;rounded=0;orthogonalLoop=1;jettySize=auto;html=1;entryX=0.5;entryY=1;entryDx=0;entryDy=0;" edge="1" parent="1" source="X3lZZAMesxP48PVonPVM-4" target="V3CcNHAtmHuNCSfje6Ld-1">
          <mxGeometry relative="1" as="geometry">
            <mxPoint x="560" y="680" as="targetPoint" />
          </mxGeometry>
        </mxCell>
        <mxCell id="X3lZZAMesxP48PVonPVM-4" value="MoveDocument" style="shape=parallelogram;perimeter=parallelogramPerimeter;whiteSpace=wrap;html=1;fixedSize=1;" vertex="1" parent="1">
          <mxGeometry x="360" y="780" width="140" height="40" as="geometry" />
        </mxCell>
        <mxCell id="X3lZZAMesxP48PVonPVM-7" style="edgeStyle=orthogonalEdgeStyle;rounded=0;orthogonalLoop=1;jettySize=auto;html=1;" edge="1" parent="1" source="X3lZZAMesxP48PVonPVM-5" target="X3lZZAMesxP48PVonPVM-1">
          <mxGeometry relative="1" as="geometry" />
        </mxCell>
        <mxCell id="X3lZZAMesxP48PVonPVM-5" value="AvailableFolders" style="shape=parallelogram;perimeter=parallelogramPerimeter;whiteSpace=wrap;html=1;fixedSize=1;" vertex="1" parent="1">
          <mxGeometry x="145" y="640" width="140" height="40" as="geometry" />
        </mxCell>
        <mxCell id="X3lZZAMesxP48PVonPVM-6" style="edgeStyle=orthogonalEdgeStyle;rounded=0;orthogonalLoop=1;jettySize=auto;html=1;entryX=1;entryY=0.5;entryDx=0;entryDy=0;" edge="1" parent="1" source="V3CcNHAtmHuNCSfje6Ld-7" target="X3lZZAMesxP48PVonPVM-5">
          <mxGeometry relative="1" as="geometry">
            <Array as="points">
              <mxPoint x="340" y="600" />
              <mxPoint x="340" y="660" />
            </Array>
          </mxGeometry>
        </mxCell>
        <mxCell id="giOcQuAkNN6Gvayyf7S0-8" value="click" style="edgeLabel;html=1;align=center;verticalAlign=middle;resizable=0;points=[];" vertex="1" connectable="0" parent="X3lZZAMesxP48PVonPVM-6">
          <mxGeometry x="-0.838" relative="1" as="geometry">
            <mxPoint y="-10" as="offset" />
          </mxGeometry>
        </mxCell>
        <mxCell id="1chSAgp_iak5nZk13jcw-1" style="edgeStyle=orthogonalEdgeStyle;rounded=0;orthogonalLoop=1;jettySize=auto;html=1;" edge="1" parent="1" source="X3lZZAMesxP48PVonPVM-3" target="X3lZZAMesxP48PVonPVM-4">
          <mxGeometry relative="1" as="geometry">
            <Array as="points">
              <mxPoint x="350" y="805" />
              <mxPoint x="350" y="805" />
            </Array>
          </mxGeometry>
        </mxCell>
        <mxCell id="giOcQuAkNN6Gvayyf7S0-6" value="click" style="edgeLabel;html=1;align=center;verticalAlign=middle;resizable=0;points=[];" vertex="1" connectable="0" parent="1chSAgp_iak5nZk13jcw-1">
          <mxGeometry x="-0.7922" y="1" relative="1" as="geometry">
            <mxPoint y="-9" as="offset" />
          </mxGeometry>
        </mxCell>
        <mxCell id="giOcQuAkNN6Gvayyf7S0-5" style="edgeStyle=orthogonalEdgeStyle;rounded=0;orthogonalLoop=1;jettySize=auto;html=1;" edge="1" parent="1" source="giOcQuAkNN6Gvayyf7S0-4">
          <mxGeometry relative="1" as="geometry">
            <mxPoint x="530" y="650" as="targetPoint" />
            <Array as="points">
              <mxPoint x="530" y="870" />
              <mxPoint x="530" y="680" />
            </Array>
          </mxGeometry>
        </mxCell>
        <mxCell id="giOcQuAkNN6Gvayyf7S0-4" value="ShowFolderContent" style="shape=parallelogram;perimeter=parallelogramPerimeter;whiteSpace=wrap;html=1;fixedSize=1;" vertex="1" parent="1">
          <mxGeometry x="350" y="850" width="140" height="40" as="geometry" />
        </mxCell>
        <mxCell id="giOcQuAkNN6Gvayyf7S0-3" style="edgeStyle=orthogonalEdgeStyle;rounded=0;orthogonalLoop=1;jettySize=auto;html=1;entryX=0;entryY=0.5;entryDx=0;entryDy=0;" edge="1" parent="1" source="giOcQuAkNN6Gvayyf7S0-2" target="giOcQuAkNN6Gvayyf7S0-4">
          <mxGeometry relative="1" as="geometry">
            <mxPoint x="440" y="870" as="targetPoint" />
          </mxGeometry>
        </mxCell>
        <mxCell id="giOcQuAkNN6Gvayyf7S0-7" value="back" style="edgeLabel;html=1;align=center;verticalAlign=middle;resizable=0;points=[];" vertex="1" connectable="0" parent="giOcQuAkNN6Gvayyf7S0-3">
          <mxGeometry x="-0.7147" relative="1" as="geometry">
            <mxPoint x="3" y="-10" as="offset" />
          </mxGeometry>
        </mxCell>
        <mxCell id="giOcQuAkNN6Gvayyf7S0-2" value="" style="ellipse;whiteSpace=wrap;html=1;aspect=fixed;" vertex="1" parent="1">
          <mxGeometry x="290" y="830" width="20" height="20" as="geometry" />
        </mxCell>
        <mxCell id="2HKMo0m_3n5zOk2g3--J-8" value="" style="ellipse;whiteSpace=wrap;html=1;aspect=fixed;" vertex="1" parent="1">
          <mxGeometry x="164" y="480" width="20" height="20" as="geometry" />
        </mxCell>
        <mxCell id="2HKMo0m_3n5zOk2g3--J-6" value="back" style="edgeLabel;html=1;align=center;verticalAlign=middle;resizable=0;points=[];" vertex="1" connectable="0" parent="1">
          <mxGeometry x="189.99909090909102" y="510" as="geometry">
            <mxPoint x="-2" as="offset" />
          </mxGeometry>
        </mxCell>
        <mxCell id="ly-MyDQbVd1uz6o1lVcv-3" value="" style="ellipse;whiteSpace=wrap;html=1;aspect=fixed;" vertex="1" parent="1">
          <mxGeometry x="590" y="550" width="20" height="20" as="geometry" />
        </mxCell>
        <mxCell id="wSeDK2D3it0EYG7SswR4-3" style="edgeStyle=orthogonalEdgeStyle;rounded=0;orthogonalLoop=1;jettySize=auto;html=1;" edge="1" parent="1" source="wSeDK2D3it0EYG7SswR4-1" target="wSeDK2D3it0EYG7SswR4-2">
          <mxGeometry relative="1" as="geometry" />
        </mxCell>
        <mxCell id="wSeDK2D3it0EYG7SswR4-4" value="logout" style="edgeLabel;html=1;align=center;verticalAlign=middle;resizable=0;points=[];" vertex="1" connectable="0" parent="wSeDK2D3it0EYG7SswR4-3">
          <mxGeometry x="-0.4987" y="1" relative="1" as="geometry">
            <mxPoint y="-9" as="offset" />
          </mxGeometry>
        </mxCell>
        <mxCell id="wSeDK2D3it0EYG7SswR4-1" value="" style="ellipse;whiteSpace=wrap;html=1;aspect=fixed;" vertex="1" parent="1">
          <mxGeometry x="590" y="600" width="20" height="20" as="geometry" />
        </mxCell>
        <mxCell id="wSeDK2D3it0EYG7SswR4-2" value="Logout" style="shape=parallelogram;perimeter=parallelogramPerimeter;whiteSpace=wrap;html=1;fixedSize=1;" vertex="1" parent="1">
          <mxGeometry x="650" y="590" width="107" height="40" as="geometry" />
        </mxCell>
        <mxCell id="wSeDK2D3it0EYG7SswR4-5" value="" style="ellipse;whiteSpace=wrap;html=1;aspect=fixed;" vertex="1" parent="1">
          <mxGeometry x="220" y="870" width="20" height="20" as="geometry" />
        </mxCell>
        <mxCell id="wSeDK2D3it0EYG7SswR4-6" value="Logout" style="shape=parallelogram;perimeter=parallelogramPerimeter;whiteSpace=wrap;html=1;fixedSize=1;" vertex="1" parent="1">
          <mxGeometry x="183" y="930" width="107" height="40" as="geometry" />
        </mxCell>
        <mxCell id="wSeDK2D3it0EYG7SswR4-8" style="edgeStyle=orthogonalEdgeStyle;rounded=0;orthogonalLoop=1;jettySize=auto;html=1;entryX=0.441;entryY=-0.02;entryDx=0;entryDy=0;entryPerimeter=0;" edge="1" parent="1" target="wSeDK2D3it0EYG7SswR4-6">
          <mxGeometry relative="1" as="geometry">
            <mxPoint x="230" y="890" as="sourcePoint" />
          </mxGeometry>
        </mxCell>
        <mxCell id="wSeDK2D3it0EYG7SswR4-9" value="logout" style="edgeLabel;html=1;align=center;verticalAlign=middle;resizable=0;points=[];" vertex="1" connectable="0" parent="wSeDK2D3it0EYG7SswR4-8">
          <mxGeometry x="-0.8299" relative="1" as="geometry">
            <mxPoint x="20" y="7" as="offset" />
          </mxGeometry>
        </mxCell>
        <mxCell id="wSeDK2D3it0EYG7SswR4-13" style="edgeStyle=orthogonalEdgeStyle;rounded=0;orthogonalLoop=1;jettySize=auto;html=1;entryX=1;entryY=0.5;entryDx=0;entryDy=0;" edge="1" parent="1" source="wSeDK2D3it0EYG7SswR4-11" target="wSeDK2D3it0EYG7SswR4-12">
          <mxGeometry relative="1" as="geometry">
            <Array as="points">
              <mxPoint x="130" y="530" />
            </Array>
          </mxGeometry>
        </mxCell>
        <mxCell id="wSeDK2D3it0EYG7SswR4-14" value="logout" style="edgeLabel;html=1;align=center;verticalAlign=middle;resizable=0;points=[];" vertex="1" connectable="0" parent="wSeDK2D3it0EYG7SswR4-13">
          <mxGeometry x="-0.7566" y="1" relative="1" as="geometry">
            <mxPoint x="-27" y="-8" as="offset" />
          </mxGeometry>
        </mxCell>
        <mxCell id="wSeDK2D3it0EYG7SswR4-11" value="" style="ellipse;whiteSpace=wrap;html=1;aspect=fixed;" vertex="1" parent="1">
          <mxGeometry x="120" y="480" width="20" height="20" as="geometry" />
        </mxCell>
        <mxCell id="wSeDK2D3it0EYG7SswR4-12" value="Logout" style="shape=parallelogram;perimeter=parallelogramPerimeter;whiteSpace=wrap;html=1;fixedSize=1;" vertex="1" parent="1">
          <mxGeometry y="510" width="107" height="40" as="geometry" />
        </mxCell>
        <mxCell id="ykRAdF48805Dj7-B3hyu-2" value="Logout" style="shape=parallelogram;perimeter=parallelogramPerimeter;whiteSpace=wrap;html=1;fixedSize=1;" vertex="1" parent="1">
          <mxGeometry x="243" y="120" width="107" height="40" as="geometry" />
        </mxCell>
        <mxCell id="ykRAdF48805Dj7-B3hyu-3" style="edgeStyle=orthogonalEdgeStyle;rounded=0;orthogonalLoop=1;jettySize=auto;html=1;" edge="1" parent="1" source="ykRAdF48805Dj7-B3hyu-1" target="ykRAdF48805Dj7-B3hyu-2">
          <mxGeometry relative="1" as="geometry" />
        </mxCell>
        <mxCell id="X2hIt799K6V4mrR3E7V7-1" value="" style="edgeStyle=orthogonalEdgeStyle;rounded=0;orthogonalLoop=1;jettySize=auto;html=1;" edge="1" parent="1" source="ykRAdF48805Dj7-B3hyu-1" target="ykRAdF48805Dj7-B3hyu-2">
          <mxGeometry relative="1" as="geometry" />
        </mxCell>
        <mxCell id="X2hIt799K6V4mrR3E7V7-2" value="logout" style="edgeLabel;html=1;align=center;verticalAlign=middle;resizable=0;points=[];" vertex="1" connectable="0" parent="X2hIt799K6V4mrR3E7V7-1">
          <mxGeometry x="-0.0684" y="-1" relative="1" as="geometry">
            <mxPoint y="-21" as="offset" />
          </mxGeometry>
        </mxCell>
      </root>
    </mxGraphModel>
  </diagram>
  <diagram id="HNhfdaB0FpwHvmU38ct4" name="Page-4">
    <mxGraphModel dx="1295" dy="768" grid="1" gridSize="10" guides="1" tooltips="1" connect="1" arrows="1" fold="1" page="1" pageScale="1" pageWidth="827" pageHeight="1169" math="0" shadow="0">
      <root>
        <mxCell id="0" />
        <mxCell id="1" parent="0" />
        <mxCell id="s033knBMDBlOwcuYNkdm-1" value="Home.html" style="swimlane;whiteSpace=wrap" vertex="1" parent="1">
          <mxGeometry x="590" y="30" width="200" height="272" as="geometry" />
        </mxCell>
        <mxCell id="s033knBMDBlOwcuYNkdm-2" value="&lt;div&gt;&amp;lt;&amp;lt;Anchor&amp;gt;&amp;gt;&lt;/div&gt;Folders tree" style="rounded=1;whiteSpace=wrap;html=1;fillColor=#bac8d3;strokeColor=#23445d;" vertex="1" parent="s033knBMDBlOwcuYNkdm-1">
          <mxGeometry x="40" y="40" width="120" height="60" as="geometry" />
        </mxCell>
        <mxCell id="s033knBMDBlOwcuYNkdm-3" value="&lt;div&gt;&amp;lt;&amp;lt;Anchor&amp;gt;&amp;gt;&lt;/div&gt;Document Manager" style="rounded=1;whiteSpace=wrap;html=1;fillColor=#bac8d3;strokeColor=#23445d;" vertex="1" parent="s033knBMDBlOwcuYNkdm-1">
          <mxGeometry x="30" y="113" width="140" height="65" as="geometry" />
        </mxCell>
        <mxCell id="s033knBMDBlOwcuYNkdm-4" value="&lt;div&gt;&amp;lt;&amp;lt;Anchor&amp;gt;&amp;gt;&lt;/div&gt;Folder Manager" style="rounded=1;whiteSpace=wrap;html=1;fillColor=#bac8d3;strokeColor=#23445d;" vertex="1" parent="s033knBMDBlOwcuYNkdm-1">
          <mxGeometry x="40" y="190" width="120" height="60" as="geometry" />
        </mxCell>
        <mxCell id="W08VZpYf-pMXLkEYIcRE-1" value="" style="ellipse;whiteSpace=wrap;html=1;aspect=fixed;" vertex="1" parent="s033knBMDBlOwcuYNkdm-1">
          <mxGeometry x="-10" y="60" width="20" height="20" as="geometry" />
        </mxCell>
        <mxCell id="Wm8freU-vn2W0l_7E-h_-1" value="" style="ellipse;whiteSpace=wrap;html=1;aspect=fixed;" vertex="1" parent="s033knBMDBlOwcuYNkdm-1">
          <mxGeometry x="20" y="135.5" width="20" height="20" as="geometry" />
        </mxCell>
        <mxCell id="17tXR4UsVEsV8_cvdVVl-4" value="" style="ellipse;whiteSpace=wrap;html=1;aspect=fixed;" vertex="1" parent="s033knBMDBlOwcuYNkdm-1">
          <mxGeometry x="90" y="240" width="20" height="20" as="geometry" />
        </mxCell>
        <mxCell id="kH8mzC7KPu61xXchPVQV-1" value="Logout" style="shape=parallelogram;perimeter=parallelogramPerimeter;whiteSpace=wrap;html=1;fixedSize=1;" vertex="1" parent="1">
          <mxGeometry x="430" y="80" width="107" height="40" as="geometry" />
        </mxCell>
        <mxCell id="W08VZpYf-pMXLkEYIcRE-2" style="edgeStyle=orthogonalEdgeStyle;rounded=0;orthogonalLoop=1;jettySize=auto;html=1;entryX=0.935;entryY=0.5;entryDx=0;entryDy=0;entryPerimeter=0;" edge="1" parent="1" source="W08VZpYf-pMXLkEYIcRE-1" target="kH8mzC7KPu61xXchPVQV-1">
          <mxGeometry relative="1" as="geometry" />
        </mxCell>
        <mxCell id="W08VZpYf-pMXLkEYIcRE-3" value="logout" style="edgeLabel;html=1;align=center;verticalAlign=middle;resizable=0;points=[];" vertex="1" connectable="0" parent="W08VZpYf-pMXLkEYIcRE-2">
          <mxGeometry x="-0.542" y="2" relative="1" as="geometry">
            <mxPoint x="-8" y="-12" as="offset" />
          </mxGeometry>
        </mxCell>
        <mxCell id="OqV7YxlFmQh_W57ZKPPI-1" value="DocumentManager.html" style="swimlane;whiteSpace=wrap" vertex="1" parent="1">
          <mxGeometry x="173.5" y="170" width="180" height="160" as="geometry" />
        </mxCell>
        <mxCell id="OqV7YxlFmQh_W57ZKPPI-2" value="&lt;div&gt;&amp;lt;&amp;lt;Form&amp;gt;&amp;gt;&lt;/div&gt;Document Creation&lt;div&gt;[field: name]&lt;br&gt;[field: path location]&lt;br&gt;[field: summary]&lt;br&gt;&lt;/div&gt;" style="rounded=1;whiteSpace=wrap;html=1;fillColor=#bac8d3;strokeColor=#23445d;" vertex="1" parent="OqV7YxlFmQh_W57ZKPPI-1">
          <mxGeometry x="30" y="35" width="120" height="95" as="geometry" />
        </mxCell>
        <mxCell id="OqV7YxlFmQh_W57ZKPPI-3" value="" style="ellipse;whiteSpace=wrap;html=1;aspect=fixed;" vertex="1" parent="OqV7YxlFmQh_W57ZKPPI-1">
          <mxGeometry x="80" y="120" width="20" height="20" as="geometry" />
        </mxCell>
        <mxCell id="OqV7YxlFmQh_W57ZKPPI-4" value="" style="ellipse;whiteSpace=wrap;html=1;aspect=fixed;" vertex="1" parent="OqV7YxlFmQh_W57ZKPPI-1">
          <mxGeometry x="-10" y="72.5" width="20" height="20" as="geometry" />
        </mxCell>
        <mxCell id="OqV7YxlFmQh_W57ZKPPI-5" style="edgeStyle=orthogonalEdgeStyle;rounded=0;orthogonalLoop=1;jettySize=auto;html=1;entryX=1;entryY=0.25;entryDx=0;entryDy=0;" edge="1" parent="1" source="OqV7YxlFmQh_W57ZKPPI-6" target="OqV7YxlFmQh_W57ZKPPI-1">
          <mxGeometry relative="1" as="geometry">
            <mxPoint x="311" y="210" as="targetPoint" />
            <Array as="points">
              <mxPoint x="467" y="210" />
            </Array>
          </mxGeometry>
        </mxCell>
        <mxCell id="OqV7YxlFmQh_W57ZKPPI-6" value="DocumentManager" style="shape=parallelogram;perimeter=parallelogramPerimeter;whiteSpace=wrap;html=1;fixedSize=1;" vertex="1" parent="1">
          <mxGeometry x="397" y="155.5" width="140" height="40" as="geometry" />
        </mxCell>
        <mxCell id="OqV7YxlFmQh_W57ZKPPI-7" value="back" style="edgeLabel;html=1;align=center;verticalAlign=middle;resizable=0;points=[];" vertex="1" connectable="0" parent="1">
          <mxGeometry x="377" y="269.99999999999955" as="geometry" />
        </mxCell>
        <mxCell id="17tXR4UsVEsV8_cvdVVl-2" style="edgeStyle=orthogonalEdgeStyle;rounded=0;orthogonalLoop=1;jettySize=auto;html=1;entryX=0;entryY=0.5;entryDx=0;entryDy=0;" edge="1" parent="1" source="OqV7YxlFmQh_W57ZKPPI-8" target="17tXR4UsVEsV8_cvdVVl-1">
          <mxGeometry relative="1" as="geometry" />
        </mxCell>
        <mxCell id="OqV7YxlFmQh_W57ZKPPI-8" value="" style="ellipse;whiteSpace=wrap;html=1;aspect=fixed;" vertex="1" parent="1">
          <mxGeometry x="343.5" y="270" width="20" height="20" as="geometry" />
        </mxCell>
        <mxCell id="OqV7YxlFmQh_W57ZKPPI-9" value="" style="edgeStyle=orthogonalEdgeStyle;rounded=0;orthogonalLoop=1;jettySize=auto;html=1;entryX=0;entryY=0.5;entryDx=0;entryDy=0;" edge="1" parent="1" source="OqV7YxlFmQh_W57ZKPPI-3">
          <mxGeometry relative="1" as="geometry">
            <mxPoint x="413.5" y="360" as="targetPoint" />
            <mxPoint x="263.5" y="310" as="sourcePoint" />
            <Array as="points">
              <mxPoint x="263.5" y="360" />
            </Array>
          </mxGeometry>
        </mxCell>
        <mxCell id="OqV7YxlFmQh_W57ZKPPI-10" value="submit" style="edgeLabel;html=1;align=center;verticalAlign=middle;resizable=0;points=[];" vertex="1" connectable="0" parent="OqV7YxlFmQh_W57ZKPPI-9">
          <mxGeometry x="-0.9169" y="2" relative="1" as="geometry">
            <mxPoint x="18" as="offset" />
          </mxGeometry>
        </mxCell>
        <mxCell id="OqV7YxlFmQh_W57ZKPPI-11" value="CreateDocument" style="shape=parallelogram;perimeter=parallelogramPerimeter;whiteSpace=wrap;html=1;fixedSize=1;" vertex="1" parent="1">
          <mxGeometry x="360" y="340" width="140" height="40" as="geometry" />
        </mxCell>
        <mxCell id="OqV7YxlFmQh_W57ZKPPI-12" style="edgeStyle=orthogonalEdgeStyle;rounded=0;orthogonalLoop=1;jettySize=auto;html=1;entryX=0.25;entryY=1;entryDx=0;entryDy=0;exitX=0.5;exitY=1;exitDx=0;exitDy=0;" edge="1" parent="1" source="OqV7YxlFmQh_W57ZKPPI-16" target="OqV7YxlFmQh_W57ZKPPI-1">
          <mxGeometry relative="1" as="geometry">
            <mxPoint x="520" y="390" as="sourcePoint" />
            <Array as="points">
              <mxPoint x="434" y="400" />
              <mxPoint x="218" y="400" />
            </Array>
          </mxGeometry>
        </mxCell>
        <mxCell id="AXcEpTLhEzfsTLZcN_Tx-1" style="edgeStyle=orthogonalEdgeStyle;rounded=0;orthogonalLoop=1;jettySize=auto;html=1;entryX=0.25;entryY=1;entryDx=0;entryDy=0;" edge="1" parent="1" source="OqV7YxlFmQh_W57ZKPPI-13" target="s033knBMDBlOwcuYNkdm-1">
          <mxGeometry relative="1" as="geometry" />
        </mxCell>
        <mxCell id="OqV7YxlFmQh_W57ZKPPI-13" value="" style="ellipse;whiteSpace=wrap;html=1;aspect=fixed;" vertex="1" parent="1">
          <mxGeometry x="480" y="350" width="20" height="20" as="geometry" />
        </mxCell>
        <mxCell id="OqV7YxlFmQh_W57ZKPPI-14" value="document created&lt;br&gt;successfully" style="edgeLabel;html=1;align=center;verticalAlign=middle;resizable=0;points=[];" vertex="1" connectable="0" parent="1">
          <mxGeometry x="550" y="340.0014285714284" as="geometry" />
        </mxCell>
        <mxCell id="OqV7YxlFmQh_W57ZKPPI-15" value="error document not created" style="edgeLabel;html=1;align=center;verticalAlign=middle;resizable=0;points=[];" vertex="1" connectable="0" parent="1">
          <mxGeometry x="400" y="410.0014285714284" as="geometry" />
        </mxCell>
        <mxCell id="OqV7YxlFmQh_W57ZKPPI-16" value="" style="ellipse;whiteSpace=wrap;html=1;aspect=fixed;" vertex="1" parent="1">
          <mxGeometry x="424" y="370" width="20" height="20" as="geometry" />
        </mxCell>
        <mxCell id="OqV7YxlFmQh_W57ZKPPI-17" value="Logout" style="shape=parallelogram;perimeter=parallelogramPerimeter;whiteSpace=wrap;html=1;fixedSize=1;" vertex="1" parent="1">
          <mxGeometry x="40" y="230" width="100" height="40" as="geometry" />
        </mxCell>
        <mxCell id="OqV7YxlFmQh_W57ZKPPI-18" style="edgeStyle=orthogonalEdgeStyle;rounded=0;orthogonalLoop=1;jettySize=auto;html=1;entryX=1;entryY=0.5;entryDx=0;entryDy=0;" edge="1" parent="1" source="OqV7YxlFmQh_W57ZKPPI-4" target="OqV7YxlFmQh_W57ZKPPI-17">
          <mxGeometry relative="1" as="geometry">
            <mxPoint x="132" y="252.55999999999995" as="targetPoint" />
            <Array as="points">
              <mxPoint x="170" y="250" />
              <mxPoint x="170" y="250" />
            </Array>
          </mxGeometry>
        </mxCell>
        <mxCell id="OqV7YxlFmQh_W57ZKPPI-19" value="logout" style="edgeLabel;html=1;align=center;verticalAlign=middle;resizable=0;points=[];" vertex="1" connectable="0" parent="OqV7YxlFmQh_W57ZKPPI-18">
          <mxGeometry x="-0.5142" relative="1" as="geometry">
            <mxPoint x="-4" y="17" as="offset" />
          </mxGeometry>
        </mxCell>
        <mxCell id="ujXcayKw81ud34BNWjti-1" style="edgeStyle=orthogonalEdgeStyle;rounded=0;orthogonalLoop=1;jettySize=auto;html=1;entryX=1;entryY=0.5;entryDx=0;entryDy=0;" edge="1" parent="1" source="Wm8freU-vn2W0l_7E-h_-1" target="OqV7YxlFmQh_W57ZKPPI-6">
          <mxGeometry relative="1" as="geometry" />
        </mxCell>
        <mxCell id="17tXR4UsVEsV8_cvdVVl-3" style="edgeStyle=orthogonalEdgeStyle;rounded=0;orthogonalLoop=1;jettySize=auto;html=1;entryX=0;entryY=0.75;entryDx=0;entryDy=0;" edge="1" parent="1" source="17tXR4UsVEsV8_cvdVVl-1" target="s033knBMDBlOwcuYNkdm-1">
          <mxGeometry relative="1" as="geometry" />
        </mxCell>
        <mxCell id="17tXR4UsVEsV8_cvdVVl-1" value="ShowHome" style="shape=parallelogram;perimeter=parallelogramPerimeter;whiteSpace=wrap;html=1;fixedSize=1;" vertex="1" parent="1">
          <mxGeometry x="400" y="260" width="110" height="40" as="geometry" />
        </mxCell>
        <mxCell id="a8vTp3jwA09njluIT8Ua-5" style="edgeStyle=orthogonalEdgeStyle;rounded=0;orthogonalLoop=1;jettySize=auto;html=1;entryX=0.5;entryY=0;entryDx=0;entryDy=0;" edge="1" parent="1" source="04tpDrBEwfisImQXeMzT-1" target="a8vTp3jwA09njluIT8Ua-1">
          <mxGeometry relative="1" as="geometry" />
        </mxCell>
        <mxCell id="04tpDrBEwfisImQXeMzT-1" value="FolderManager" style="shape=parallelogram;perimeter=parallelogramPerimeter;whiteSpace=wrap;html=1;fixedSize=1;" vertex="1" parent="1">
          <mxGeometry x="620" y="410" width="140" height="40" as="geometry" />
        </mxCell>
        <mxCell id="17tXR4UsVEsV8_cvdVVl-5" style="edgeStyle=orthogonalEdgeStyle;rounded=0;orthogonalLoop=1;jettySize=auto;html=1;entryX=0.5;entryY=0;entryDx=0;entryDy=0;" edge="1" parent="1" source="17tXR4UsVEsV8_cvdVVl-4" target="04tpDrBEwfisImQXeMzT-1">
          <mxGeometry relative="1" as="geometry">
            <mxPoint x="690" y="463.21211381392044" as="targetPoint" />
          </mxGeometry>
        </mxCell>
        <mxCell id="a8vTp3jwA09njluIT8Ua-1" value="FolderManager.html" style="swimlane;whiteSpace=wrap" vertex="1" parent="1">
          <mxGeometry x="600" y="510" width="180" height="160" as="geometry" />
        </mxCell>
        <mxCell id="a8vTp3jwA09njluIT8Ua-2" value="&lt;div&gt;&amp;lt;&amp;lt;Form&amp;gt;&amp;gt;&lt;/div&gt;Folder Creation&lt;div&gt;[field: name]&lt;br&gt;[field: path location]&lt;br&gt;&lt;/div&gt;" style="rounded=1;whiteSpace=wrap;html=1;fillColor=#bac8d3;strokeColor=#23445d;" vertex="1" parent="a8vTp3jwA09njluIT8Ua-1">
          <mxGeometry x="30" y="35" width="120" height="95" as="geometry" />
        </mxCell>
        <mxCell id="a8vTp3jwA09njluIT8Ua-3" value="" style="ellipse;whiteSpace=wrap;html=1;aspect=fixed;" vertex="1" parent="a8vTp3jwA09njluIT8Ua-1">
          <mxGeometry x="80" y="120" width="20" height="20" as="geometry" />
        </mxCell>
        <mxCell id="a8vTp3jwA09njluIT8Ua-4" value="" style="ellipse;whiteSpace=wrap;html=1;aspect=fixed;" vertex="1" parent="a8vTp3jwA09njluIT8Ua-1">
          <mxGeometry x="-10" y="72.5" width="20" height="20" as="geometry" />
        </mxCell>
        <mxCell id="-oL82JJsf3ROo4tgY3Lp-2" style="edgeStyle=orthogonalEdgeStyle;rounded=0;orthogonalLoop=1;jettySize=auto;html=1;entryX=0.5;entryY=1;entryDx=0;entryDy=0;" edge="1" parent="1" source="-oL82JJsf3ROo4tgY3Lp-1" target="-oL82JJsf3ROo4tgY3Lp-4">
          <mxGeometry relative="1" as="geometry">
            <mxPoint x="810" y="400" as="targetPoint" />
            <Array as="points">
              <mxPoint x="810" y="565" />
            </Array>
          </mxGeometry>
        </mxCell>
        <mxCell id="-oL82JJsf3ROo4tgY3Lp-3" value="back" style="edgeLabel;html=1;align=center;verticalAlign=middle;resizable=0;points=[];" vertex="1" connectable="0" parent="-oL82JJsf3ROo4tgY3Lp-2">
          <mxGeometry x="-0.9744" y="-2" relative="1" as="geometry">
            <mxPoint x="4" y="8" as="offset" />
          </mxGeometry>
        </mxCell>
        <mxCell id="-oL82JJsf3ROo4tgY3Lp-1" value="" style="ellipse;whiteSpace=wrap;html=1;aspect=fixed;" vertex="1" parent="1">
          <mxGeometry x="770" y="555" width="20" height="20" as="geometry" />
        </mxCell>
        <mxCell id="-oL82JJsf3ROo4tgY3Lp-5" style="edgeStyle=orthogonalEdgeStyle;rounded=0;orthogonalLoop=1;jettySize=auto;html=1;entryX=1;entryY=0.5;entryDx=0;entryDy=0;" edge="1" parent="1" source="-oL82JJsf3ROo4tgY3Lp-4" target="s033knBMDBlOwcuYNkdm-1">
          <mxGeometry relative="1" as="geometry" />
        </mxCell>
        <mxCell id="-oL82JJsf3ROo4tgY3Lp-4" value="ShowHome" style="shape=parallelogram;perimeter=parallelogramPerimeter;whiteSpace=wrap;html=1;fixedSize=1;" vertex="1" parent="1">
          <mxGeometry x="750" y="340" width="120" height="40" as="geometry" />
        </mxCell>
        <mxCell id="sUhB5EdhRDe2YpOmHLTP-1" value="Logout" style="shape=parallelogram;perimeter=parallelogramPerimeter;whiteSpace=wrap;html=1;fixedSize=1;" vertex="1" parent="1">
          <mxGeometry x="440" y="575" width="100" height="40" as="geometry" />
        </mxCell>
        <mxCell id="sUhB5EdhRDe2YpOmHLTP-2" style="edgeStyle=orthogonalEdgeStyle;rounded=0;orthogonalLoop=1;jettySize=auto;html=1;entryX=0.923;entryY=0.427;entryDx=0;entryDy=0;entryPerimeter=0;" edge="1" parent="1" source="a8vTp3jwA09njluIT8Ua-4" target="sUhB5EdhRDe2YpOmHLTP-1">
          <mxGeometry relative="1" as="geometry" />
        </mxCell>
        <mxCell id="sUhB5EdhRDe2YpOmHLTP-3" value="logout" style="edgeLabel;html=1;align=center;verticalAlign=middle;resizable=0;points=[];" vertex="1" connectable="0" parent="sUhB5EdhRDe2YpOmHLTP-2">
          <mxGeometry x="-0.3492" y="1" relative="1" as="geometry">
            <mxPoint y="-11" as="offset" />
          </mxGeometry>
        </mxCell>
        <mxCell id="sUhB5EdhRDe2YpOmHLTP-4" value="CreateFolder" style="shape=parallelogram;perimeter=parallelogramPerimeter;whiteSpace=wrap;html=1;fixedSize=1;" vertex="1" parent="1">
          <mxGeometry x="620" y="730" width="140" height="40" as="geometry" />
        </mxCell>
        <mxCell id="sUhB5EdhRDe2YpOmHLTP-5" style="edgeStyle=orthogonalEdgeStyle;rounded=0;orthogonalLoop=1;jettySize=auto;html=1;entryX=0.5;entryY=0;entryDx=0;entryDy=0;" edge="1" parent="1" source="a8vTp3jwA09njluIT8Ua-3" target="sUhB5EdhRDe2YpOmHLTP-4">
          <mxGeometry relative="1" as="geometry" />
        </mxCell>
        <mxCell id="sUhB5EdhRDe2YpOmHLTP-7" style="edgeStyle=orthogonalEdgeStyle;rounded=0;orthogonalLoop=1;jettySize=auto;html=1;" edge="1" parent="1" source="sUhB5EdhRDe2YpOmHLTP-6">
          <mxGeometry relative="1" as="geometry">
            <mxPoint x="730" y="670" as="targetPoint" />
          </mxGeometry>
        </mxCell>
        <mxCell id="sUhB5EdhRDe2YpOmHLTP-8" value="error folder not created" style="edgeLabel;html=1;align=center;verticalAlign=middle;resizable=0;points=[];" vertex="1" connectable="0" parent="sUhB5EdhRDe2YpOmHLTP-7">
          <mxGeometry x="-0.5118" y="-2" relative="1" as="geometry">
            <mxPoint x="58" as="offset" />
          </mxGeometry>
        </mxCell>
        <mxCell id="sUhB5EdhRDe2YpOmHLTP-6" value="" style="ellipse;whiteSpace=wrap;html=1;aspect=fixed;" vertex="1" parent="1">
          <mxGeometry x="720" y="720" width="20" height="20" as="geometry" />
        </mxCell>
        <mxCell id="sUhB5EdhRDe2YpOmHLTP-10" style="edgeStyle=orthogonalEdgeStyle;rounded=0;orthogonalLoop=1;jettySize=auto;html=1;entryX=1;entryY=0.25;entryDx=0;entryDy=0;" edge="1" parent="1" source="sUhB5EdhRDe2YpOmHLTP-9" target="s033knBMDBlOwcuYNkdm-1">
          <mxGeometry relative="1" as="geometry">
            <Array as="points">
              <mxPoint x="890" y="750" />
              <mxPoint x="890" y="98" />
            </Array>
          </mxGeometry>
        </mxCell>
        <mxCell id="sUhB5EdhRDe2YpOmHLTP-9" value="" style="ellipse;whiteSpace=wrap;html=1;aspect=fixed;" vertex="1" parent="1">
          <mxGeometry x="740" y="740" width="20" height="20" as="geometry" />
        </mxCell>
      </root>
    </mxGraphModel>
  </diagram>
</mxfile>
